<svg id="Capa_1" data-name="Capa 1" xmlns="http://www.w3.org/2000/svg" viewBox="0 0 511.5 512"><title>Algorithm_icon</title><path d="M511.75,165.5a45.07,45.07,0,0,0-30-42.42V60h-89.5V0h-272V150h272V90h59.5v33.08a45,45,0,0,0,0,84.84V241h-59.5V181h-272v60h-90v63.08a45,45,0,0,0,0,84.84V452h90v60h272V362h-272v60h-60V388.92a45,45,0,0,0,0-84.84V271h60v60h272V271h89.5V207.92A45.07,45.07,0,0,0,511.75,165.5ZM362.25,120h-212V30h212Zm-212,272h212v90h-212Zm-105-30.5a15,15,0,1,1,15-15A15,15,0,0,1,45.25,361.5Zm317-60.5h-212V211h212Zm104.5-120.5a15,15,0,1,1,15-15A15,15,0,0,1,466.75,180.5Z" transform="translate(-0.25)"/><rect x="241" y="60" width="30" height="30"/><rect x="181" y="60" width="30" height="30"/><rect x="301" y="60" width="30" height="30"/><rect x="241" y="241" width="30" height="30"/><rect x="181" y="241" width="30" height="30"/><rect x="301" y="241" width="30" height="30"/><rect x="241" y="422" width="30" height="30"/><rect x="181" y="422" width="30" height="30"/><rect x="301" y="422" width="30" height="30"/></svg>