<svg id="Layer_1" data-name="Layer 1" xmlns="http://www.w3.org/2000/svg" viewBox="0 0 140.98 140.98"><defs><style>.cls-1{fill:#c9e07d;}.cls-2{fill:#f0f7db;}.cls-3{fill:#deecaf;}.cls-4{fill:#abd037;}.cls-5{fill:#fff;}.cls-6{fill:#d3e797;}.cls-7{fill:#b8d755;}.cls-8{fill:#ecf0f2;}.cls-9{fill:none;stroke:#34454e;stroke-linecap:round;stroke-miterlimit:10;stroke-width:3px;}</style></defs><title>Algorithm_icon_Light</title><path class="cls-1" d="M309.57,392.6l54,45.28c-13.88,16.54-32.37,25.16-54,25.16Z" transform="translate(-239.04 -322.06)"/><path class="cls-2" d="M309.57,392.6l61,35.22a67.48,67.48,0,0,1-7,10.06Z" transform="translate(-239.04 -322.06)"/><path class="cls-3" d="M309.57,392.6l24.09-66.19a70.46,70.46,0,0,1,42.1,90.29,67.31,67.31,0,0,1-5.19,11.12Z" transform="translate(-239.04 -322.06)"/><path class="cls-4" d="M309.57,392.6l-61-35.21a69.88,69.88,0,0,1,85.09-31Z" transform="translate(-239.04 -322.06)"/><path class="cls-5" d="M309.57,392.6,240.2,380.37a67,67,0,0,1,8.37-23Z" transform="translate(-239.04 -322.06)"/><path class="cls-6" d="M309.57,392.6l-45.28,54c-19.85-16.65-28.59-40.67-24.09-66.19Z" transform="translate(-239.04 -322.06)"/><path class="cls-7" d="M309.57,392.6V463a67.69,67.69,0,0,1-45.28-16.48Z" transform="translate(-239.04 -322.06)"/><circle class="cls-8" cx="70.9" cy="70.44" r="45"/><line class="cls-9" x1="50.8" y1="90.94" x2="50.8" y2="47.98"/><rect class="cls-4" x="44.01" y="57.15" width="13.57" height="3.89"/><line class="cls-9" x1="70.9" y1="90.94" x2="70.9" y2="47.98"/><rect class="cls-4" x="64.12" y="78.44" width="13.57" height="3.89"/><line class="cls-9" x1="91.01" y1="90.94" x2="91.01" y2="47.98"/><rect class="cls-4" x="84.23" y="63.31" width="13.57" height="3.89"/></svg>