<svg id="Layer_1" data-name="Layer 1" xmlns="http://www.w3.org/2000/svg" viewBox="0 0 266.56 250"><defs><style>.cls-1{fill:#000007;}.cls-2{fill:#abd037;}</style></defs><title>Beginner_icon</title><rect class="cls-1" x="104.33" y="60.62" width="68.46" height="9.51"/><rect class="cls-1" x="104.33" y="82.85" width="104.76" height="9.49"/><rect class="cls-1" x="104.33" y="105.06" width="71.74" height="9.51"/><path class="cls-1" d="M307.8,40.31A23.5,23.5,0,0,0,298.65,42a31.68,31.68,0,0,0-16.23-4.37,34.69,34.69,0,0,0-25.2,11,45.8,45.8,0,0,0-12.34-1.58c-14.83,0-31,5.9-37.62,14.66H167.9V74.88H79.37a4.06,4.06,0,0,0-4.06,4.05v92.54a4.06,4.06,0,0,0,4.06,4.06H167.9v67.24c-36.5,4.11-70.32,16.87-97.15,36.94a3.66,3.66,0,0,0,4.4,5.86c31.8-23.8,73.93-36.9,118.62-36.9s86.82,13.1,118.63,36.9a3.66,3.66,0,1,0,4.39-5.86c-26.82-20.07-60.64-32.83-97.14-36.94V175.53h88.53a4.06,4.06,0,0,0,4.06-4.06V135.23c10.72-2.6,14.92-15.4,17.43-49.49,5-9.09,9.34-21.86,3.09-32.56C327.2,43.67,315.84,40.31,307.8,40.31ZM84.44,166.4V84h142a192.56,192.56,0,0,0,30.92,2.21A213.47,213.47,0,0,0,289.45,84h4.36c-1.3,17-.08,40.52,6.92,48.48a10,10,0,0,0,2.38,2v31.9ZM322.88,82.88a3.68,3.68,0,0,0-.46,1.52c-3.18,44-9.18,44-15,44-.13,0-.52,0-1.21-.77-5.32-6.07-6.79-31.41-4.5-49.15a3.68,3.68,0,0,0-3.63-4.14,3.92,3.92,0,0,0-1.5.32c-5.41,2.43-21.91,4.2-39.23,4.2-12.94,0-24.69-1-33.07-2.73-10.12-2.12-12.79-4.82-12.79-5.94,0-7,15.71-15.79,33.37-15.79a37.08,37.08,0,0,1,12.3,1.89,3.65,3.65,0,0,0,4-1.11,27.23,27.23,0,0,1,21.21-10.27,24,24,0,0,1,13.89,4.26,3.64,3.64,0,0,0,4.15.08c1.56-1,4.3-1.64,7.34-1.64,9.14,0,15.95,4.65,18.63,9.24C330.13,63.2,328.9,72.18,322.88,82.88Z" transform="translate(-69.28 -37.61)"/><path class="cls-1" d="M236.49,264.92a5.25,5.25,0,1,0-5.25,5.25A5.25,5.25,0,0,0,236.49,264.92Z" transform="translate(-69.28 -37.61)"/><path class="cls-1" d="M250.78,263.83a7.11,7.11,0,1,0,7.1,7.1A7.11,7.11,0,0,0,250.78,263.83Z" transform="translate(-69.28 -37.61)"/><path class="cls-1" d="M234.75,275.63a3.52,3.52,0,1,0,3.5,3.5A3.51,3.51,0,0,0,234.75,275.63Z" transform="translate(-69.28 -37.61)"/><path class="cls-1" d="M273.4,275.63a5,5,0,1,0,5,5A5,5,0,0,0,273.4,275.63Z" transform="translate(-69.28 -37.61)"/><path class="cls-1" d="M260.36,282.66a2.46,2.46,0,0,0-2.48,2.46,2.48,2.48,0,1,0,4.95,0A2.46,2.46,0,0,0,260.36,282.66Z" transform="translate(-69.28 -37.61)"/><path class="cls-1" d="M246.46,57.73a4.39,4.39,0,1,0,4.39,4.39A4.38,4.38,0,0,0,246.46,57.73Z" transform="translate(-69.28 -37.61)"/><path class="cls-1" d="M279.64,50.76A2.18,2.18,0,1,0,281.81,53,2.18,2.18,0,0,0,279.64,50.76Z" transform="translate(-69.28 -37.61)"/><path class="cls-1" d="M292.36,53.48a5.24,5.24,0,1,0,5.24,5.25A5.25,5.25,0,0,0,292.36,53.48Z" transform="translate(-69.28 -37.61)"/><path class="cls-1" d="M301.41,52.14a1.49,1.49,0,1,0,1.49,1.49A1.49,1.49,0,0,0,301.41,52.14Z" transform="translate(-69.28 -37.61)"/><path class="cls-1" d="M318.08,64a4.42,4.42,0,1,0-4.42-4.42A4.42,4.42,0,0,0,318.08,64Z" transform="translate(-69.28 -37.61)"/><path class="cls-1" d="M321.41,67.22a2,2,0,1,0,2,2.06A2,2,0,0,0,321.41,67.22Z" transform="translate(-69.28 -37.61)"/><ellipse class="cls-1" cx="250.97" cy="38.67" rx="0.88" ry="0.88"/><path class="cls-1" d="M314,105.47a3.74,3.74,0,1,0,3.74,3.74A3.75,3.75,0,0,0,314,105.47Z" transform="translate(-69.28 -37.61)"/><path class="cls-1" d="M316.53,98.23a1.78,1.78,0,1,0,1.79,1.79A1.77,1.77,0,0,0,316.53,98.23Z" transform="translate(-69.28 -37.61)"/><circle class="cls-2" cx="56.34" cy="88" r="25"/></svg>