<svg id="Layer_1" data-name="Layer 1" xmlns="http://www.w3.org/2000/svg" viewBox="0 0 270.54 289.24"><title>Best Snow_icon</title><path d="M290.59,71.27c-6.4-30.89-34-54.06-66.26-54.06A68,68,0,0,0,167.24,48.7a50.38,50.38,0,0,0-5.28-.3,56.86,56.86,0,0,0-54.88,41.71,46.83,46.83,0,0,0,2.85,93.58H276.36A57.09,57.09,0,0,0,290.59,71.27Zm-14.23,91.6H109.93a26,26,0,0,1,0-52,25.37,25.37,0,0,1,4,.45L124.81,113l1.12-11a36.19,36.19,0,0,1,36-32.81,35.21,35.21,0,0,1,8.42,1.12l8.13,1.92,3.66-7.57A46.74,46.74,0,0,1,271,81l.72,8.59,8.53.91a36.3,36.3,0,0,1-3.86,72.4Z" transform="translate(-63.08 -17.21)"/><path d="M171.23,226.85c-.07-.87-.14-1.67-.26-2.41s-.21-1.45-.34-2.14-.28-1.26-.34-1.59c-.79-2.62-3-3.75-5.75-2.87A21.82,21.82,0,0,0,161.8,219c-1.13.53-2.53,1.19-4.14,1.93s-3.27,1.68-5.15,2.62L150,224.78l3.47-18.71L152,205.6a45.78,45.78,0,0,0-4.88-1.07,26.74,26.74,0,0,0-3.68-.4,4.25,4.25,0,0,0-4.6,4.62,43.53,43.53,0,0,0,.46,4.95c.28,2.39.67,5.13,1.13,8.21l.48,2.8-16.58-9.08-.94,1.27a31.4,31.4,0,0,0-2.53,4.27,16.16,16.16,0,0,0-1.61,3.68,4,4,0,0,0-.13.74,3.86,3.86,0,0,0-.07.87,3.82,3.82,0,0,0,3.15,3.87,19.61,19.61,0,0,0,2.8.66c1.27.34,2.81.6,4.55.88l5.68,1a28.83,28.83,0,0,1,2.88.47l-13.91,13,1,1.27c1.06,1.27,2.14,2.46,3.33,3.68a21.88,21.88,0,0,0,2.6,2.27,4.15,4.15,0,0,0,2.88,1.34,4,4,0,0,0,3.47-2,19.16,19.16,0,0,0,1.61-2.49c.67-1.19,1.4-2.53,2.27-4.14s1.75-3.28,2.67-5.21l1.34-2.47,8.23,17.44,1.54-.74c.66-.26,1.4-.67,2.2-1.06l2.14-1c.74-.32,1.4-.67,1.94-.94s1-.6,1.54-.92a4.53,4.53,0,0,0,1.72-3.55,4.83,4.83,0,0,0-.92-2.87c-.34-.34-.94-1.08-1.88-2l-3.13-3.35-4-4.21-2-2L170,231.2l1.61-.28-.14-1.59c-.14-.87-.14-1.6-.27-2.48Zm0,0" transform="translate(-63.08 -17.21)"/><path d="M228.57,277.25c-.07-.87-.13-1.67-.25-2.41s-.21-1.45-.35-2.14-.27-1.26-.34-1.59c-.78-2.62-3-3.75-5.75-2.87a21.85,21.85,0,0,0-2.73,1.13L215,271.3c-1.54.8-3.27,1.68-5.15,2.62l-2.54,1.26,3.48-18.71-1.47-.47a45.78,45.78,0,0,0-4.88-1.07,26.9,26.9,0,0,0-3.68-.4,4.25,4.25,0,0,0-4.6,4.62,43.53,43.53,0,0,0,.46,5c.28,2.39.67,5.13,1.13,8.21l.48,2.8L181.66,266l-.94,1.27a31.4,31.4,0,0,0-2.53,4.27,16.16,16.16,0,0,0-1.61,3.68,3.3,3.3,0,0,0-.13.74,3.86,3.86,0,0,0-.07.87,3.82,3.82,0,0,0,3.14,3.87,19.84,19.84,0,0,0,2.81.66,45.11,45.11,0,0,0,4.55.88l5.68,1c1,.13,1.93.26,2.87.47l-13.9,13,1,1.27c1.06,1.27,2.13,2.46,3.33,3.68a20.92,20.92,0,0,0,2.6,2.27,4.15,4.15,0,0,0,2.88,1.34,4,4,0,0,0,3.47-2,18.85,18.85,0,0,0,1.61-2.48c.66-1.2,1.4-2.54,2.27-4.15s1.75-3.28,2.67-5.21l1.34-2.47,8.22,17.44,1.54-.74c.67-.26,1.41-.67,2.21-1.06l2.14-1c.74-.32,1.4-.67,1.93-.94s1-.6,1.54-.92a4.55,4.55,0,0,0,1.73-3.55,4.9,4.9,0,0,0-.92-2.87c-.35-.34-.94-1.08-1.89-2L216.08,290l-4-4.21-2-2,17.32-2.21,1.6-.28-.13-1.59c-.14-.87-.14-1.6-.28-2.48Zm0,0" transform="translate(-63.08 -17.21)"/><path d="M287.44,213.8c-.07-.87-.14-1.67-.26-2.41s-.2-1.45-.34-2.14-.27-1.26-.34-1.59c-.79-2.62-3-3.74-5.75-2.87a24.25,24.25,0,0,0-2.74,1.13c-1.13.53-2.53,1.19-4.14,1.93s-3.27,1.68-5.15,2.62l-2.53,1.26L269.66,193l-1.47-.46a43.72,43.72,0,0,0-4.87-1.08,27.05,27.05,0,0,0-3.68-.4,4.25,4.25,0,0,0-4.6,4.62,43.53,43.53,0,0,0,.46,5c.27,2.39.67,5.13,1.13,8.21l.48,2.81-16.58-9.09-.94,1.27a29.47,29.47,0,0,0-2.53,4.27,15.3,15.3,0,0,0-1.61,3.68,3.38,3.38,0,0,0-.14.74,4.09,4.09,0,0,0,3.08,4.74,19.49,19.49,0,0,0,2.81.66,44,44,0,0,0,4.55.88l5.68,1c1,.12,1.93.25,2.87.46l-13.91,13,1,1.27c1.06,1.27,2.14,2.46,3.34,3.68a19.5,19.5,0,0,0,2.6,2.27,4.14,4.14,0,0,0,2.87,1.34,4,4,0,0,0,3.47-2,17,17,0,0,0,1.61-2.48c.67-1.2,1.41-2.54,2.28-4.14s1.74-3.29,2.67-5.22l1.33-2.47L269.8,243l1.54-.74c.67-.25,1.4-.67,2.21-1.06l2.14-1c.73-.32,1.4-.67,1.93-.94l1.54-.92a4.54,4.54,0,0,0,1.73-3.54,4.85,4.85,0,0,0-.93-2.88c-.34-.34-.94-1.08-1.88-2L275,226.57l-4-4.21c-.67-.67-1.33-1.34-2-2l17.31-2.21,1.61-.27-.14-1.59c-.13-.88-.13-1.61-.27-2.49Zm0,0" transform="translate(-63.08 -17.21)"/></svg>