<svg id="Layer_1" data-name="Layer 1" xmlns="http://www.w3.org/2000/svg" xmlns:xlink="http://www.w3.org/1999/xlink" viewBox="0 0 324.54 124.34"><defs><style>.cls-1,.cls-2{fill:none;}.cls-2{stroke:#34454e;stroke-miterlimit:10;stroke-width:5px;}.cls-3{fill:#0085ca;}.cls-4{clip-path:url(#clip-path);}.cls-5{clip-path:url(#clip-path-2);}</style><clipPath id="clip-path" transform="translate(-395.06 -155.41)"><rect class="cls-1" x="625.44" y="156" width="95.33" height="84"/></clipPath><clipPath id="clip-path-2" transform="translate(-395.06 -155.41)"><rect class="cls-1" x="395.06" y="178" width="68.09" height="60"/></clipPath></defs><title>Cost_Scale_icon</title><line class="cls-2" x1="31.44" y1="113.46" x2="269.44" y2="113.46"/><line class="cls-2" x1="31.44" y1="102.59" x2="31.44" y2="124.34"/><line class="cls-2" x1="269.44" y1="102.59" x2="269.44" y2="124.34"/><circle class="cls-3" cx="150.44" cy="113.46" r="10.5"/><g class="cls-4"><path class="cls-3" d="M716.61,191.16l-.64-1.25h-5.58c-1.08-7.36-2.4-12.81-2.5-13.18l-.59-2.4h-8l-9-18.92-32.77,18.92H631.3l-.68,2.21c-.21.7-5.18,17-5.18,30.76s5,29.68,5.18,30.36l.69,2.2h76l.59-2.4a156.77,156.77,0,0,0,2.8-15.46h-6.37c-.67,4.91-1.49,9.08-2,11.55H636c-1.34-4.74-4.25-16.32-4.25-26.25s2.93-21.82,4.26-26.66h66.3c.45,2.08,1.09,5.37,1.68,9.28h-27.9l-.54,1.46c-.13.32-3,8-3,14.56s2.85,14.23,3,14.55l.54,1.47H716l.64-1.22a38.07,38.07,0,0,0,0-29.58Zm-3.52,26.27H679.28a41.81,41.81,0,0,1-2.18-11.49,41.89,41.89,0,0,1,2.18-11.51h33.81a34.72,34.72,0,0,1,0,23Zm0,0" transform="translate(-395.06 -155.41)"/></g><path class="cls-3" d="M690,205.93a3.31,3.31,0,1,1-3.3-3.3,3.29,3.29,0,0,1,3.3,3.3Zm0,0" transform="translate(-395.06 -155.41)"/><path class="cls-3" d="M659.11,201.18a12.81,12.81,0,0,0-3.69-1.76V204c4.52,1.22,6.46,3,6.46,6.37v.06c0,3.34-2.56,5.48-6.31,5.87v2.95h-3.1v-3a15,15,0,0,1-7-2.83l2.32-3.39a11.86,11.86,0,0,0,4.86,2.41v-4.74c-4.29-1.16-6.41-2.77-6.41-6.31v-.06c0-3.28,2.51-5.45,6.26-5.84V193.7h3.1v1.82a12.22,12.22,0,0,1,5.54,2.18Zm-6.49,2v-4.06c-1.46.18-2.06.9-2.06,1.85v.06C650.56,202,651,202.61,652.62,203.21Zm2.8,5.15v4.17c1.4-.21,2.11-.84,2.11-1.91v-.06C657.53,209.58,657,209,655.42,208.36Z" transform="translate(-395.06 -155.41)"/><g class="cls-5"><path class="cls-3" d="M460.18,203.11l-.46-.89h-4C455,197,454,193.07,454,192.81l-.42-1.71h-5.71l-6.46-13.52L418,191.1H399.24l-.48,1.57c-.15.5-3.7,12.14-3.7,22s3.55,21.21,3.7,21.69l.49,1.57h54.28l.42-1.72a110.07,110.07,0,0,0,2-11H451.4c-.48,3.51-1.06,6.49-1.45,8.25H402.6c-1-3.38-3-11.65-3-18.75s2.09-15.58,3.05-19H450c.32,1.49.79,3.84,1.21,6.63H431.24l-.39,1a34.83,34.83,0,0,0-2.13,10.4,34.64,34.64,0,0,0,2.13,10.39l.39,1.05h28.48l.46-.87a27.27,27.27,0,0,0,0-21.13Zm-2.52,18.77H433.52a29.41,29.41,0,0,1-1.56-8.21,29.49,29.49,0,0,1,1.56-8.22h24.14a24.64,24.64,0,0,1,0,16.43Zm0,0" transform="translate(-395.06 -155.41)"/></g><path class="cls-3" d="M441.16,213.67a2.36,2.36,0,1,1-2.36-2.37,2.36,2.36,0,0,1,2.36,2.37Zm0,0" transform="translate(-395.06 -155.41)"/><path class="cls-3" d="M419.11,210.27a9.05,9.05,0,0,0-2.64-1.25v3.23c3.23.87,4.62,2.17,4.62,4.55v0c0,2.39-1.83,3.92-4.51,4.2v2.1h-2.22V221a10.6,10.6,0,0,1-5-2l1.66-2.42a8.56,8.56,0,0,0,3.47,1.72v-3.38c-3.06-.83-4.57-2-4.57-4.51v0c0-2.34,1.78-3.9,4.46-4.17v-1.24h2.22v1.3a8.69,8.69,0,0,1,3.95,1.55Zm-4.64,1.45v-2.9c-1,.13-1.47.64-1.47,1.32v.05C413,210.87,413.3,211.29,414.47,211.72Zm2,3.68v3c1-.15,1.51-.6,1.51-1.36V217C418,216.27,417.62,215.82,416.47,215.4Z" transform="translate(-395.06 -155.41)"/></svg>