<svg id="Layer_1" data-name="Layer 1" xmlns="http://www.w3.org/2000/svg" viewBox="0 0 267.55 232.58"><defs><style>.cls-1{fill:#201915;}</style></defs><title>Family-Friendly_icon</title><path class="cls-1" d="M139,95.19a28.58,28.58,0,1,1,28.69-28.47A28.58,28.58,0,0,1,139,95.19Z" transform="translate(-57.62 -38.03)"/><path class="cls-1" d="M59.69,167.76h0a9.55,9.55,0,0,1,.91-12.85l44.7-42.35a15,15,0,0,1,10.25-4.09l23.54,0,23.54,0a15,15,0,0,1,10.25,4.09l44.69,42.35a9.54,9.54,0,0,1,.92,12.85h0a9.54,9.54,0,0,1-13,1.83l-33.47-24-5.57,39.87,10.48,85.15h-27.4l-10.4-56.65-10.41,56.65h-27.4l10.48-85.15-5.57-39.87-33.46,24A9.54,9.54,0,0,1,59.69,167.76Z" transform="translate(-57.62 -38.03)"/><path d="M325.17,107.91C325.23,90.17,313.39,79,298.73,79s-26.58,11-26.64,28.77c-.07,23.11,18.66,33.43,24.62,36.12-1.46,10.37,1.74,20.48,4.27,30.56,2.73,10.83,4.47,23.72-3.72,32.74-1.51,1.66,1,4.13,2.47,2.46,17.35-19.09-2.81-44.06.5-65.73C306.11,141.19,325.09,130.73,325.17,107.91Z" transform="translate(-57.62 -38.03)"/><path d="M205.44,157.32l37,19,29.17-.05a8.1,8.1,0,0,1,3.65.86l35.53,17.78a6.8,6.8,0,0,1,.93,9.75c-2.11,2.46-5.16,2.37-8.48,1.5l-28.05-9.88,11.06,41.11-11.9.16-.58,26.75a6.4,6.4,0,0,1-6.31,6.25h0a6.39,6.39,0,0,1-6.43-5.7L258.27,238l-2.65,26.91a6.38,6.38,0,0,1-6.37,5.73h0a6.39,6.39,0,0,1-6.37-6.22l-.71-26.74-11.9,0L241,196.4l-35.51-27.63Z" transform="translate(-57.62 -38.03)"/><path class="cls-1" d="M255.58,169.64A16.72,16.72,0,1,0,238.8,153,16.72,16.72,0,0,0,255.58,169.64Z" transform="translate(-57.62 -38.03)"/></svg>