<svg id="Layer_1" data-name="Layer 1" xmlns="http://www.w3.org/2000/svg" viewBox="0 0 323.58 268.06"><defs><style>.cls-1{fill:#000007;}</style></defs><title>Gondola_icon</title><path class="cls-1" d="M151.43,281.13h9s.18,1,.41,2.27a3,3,0,0,0,3,2.27H258a3,3,0,0,0,3-2.27l.41-2.27h9l3-4.73H148.47Z" transform="translate(-31.65 -17.61)"/><path class="cls-1" d="M355.23,23l-3.2-5.4c-21.62,12.74-51.88,25.11-89.94,36.74C247,59,230.63,63.48,213.17,67.85v6.46c18.14-4.51,35.09-9.17,50.73-14C302.45,48.59,333.17,36,355.23,23Z" transform="translate(-31.65 -17.61)"/><path class="cls-1" d="M268.39,158.25h-5.86l-1.83-4.59a2,2,0,0,0-1.72-1.17H249c-2.68-2-7.54-5.2-11.38-5.85H215.5c.72-2.69,3.61-3.16,6.38-3.16h1.65l-3.18-5.06H217v-7.74a2.07,2.07,0,0,0-1.91-2.21h-1.91c-11.7,0-19.08-2.2-22.17-13.45-1.43-5.23,1.49-22.51,4.52-36.46,3.18-.74,6.33-1.49,9.44-2.23V72.27h.1V67.78a3.15,3.15,0,0,0-3.14-3.14H191l-.71,2.9s-.6,2.44-1.44,6.14q-15.72,3.61-32.46,7.06C88.81,94.67,32.21,101.81,31.65,101.87l.78,6.24C33,108,89.8,100.87,157.56,86.9q5.81-1.2,11.48-2.41v4.27a2.37,2.37,0,0,0,2.9,2.42l13.77-2.48c-4,21.47-2.53,26.63-2.06,28.35C187,129.36,194.8,135.17,209.36,136v2.43H206l-5.17,8.22H188.77c-3.85.65-8.71,3.89-11.39,5.85h-10a2,2,0,0,0-1.71,1.17l-1.84,4.59H153.08a6.82,6.82,0,0,0-4.8,2.29c-5.77,7.47-23,32.06-23,59,0,32.36,19.92,54.77,19.92,54.77H276.33s19.91-22.41,19.91-54.77c0-27-17.28-51.56-23.05-59A6.84,6.84,0,0,0,268.39,158.25Zm-93.56,73.59a4.15,4.15,0,0,1-4.39,3.93L139.2,234a5.45,5.45,0,0,1-4.89-4.37,72,72,0,0,1-.72-10c0-15,6.16-29.48,12.09-39.93A8,8,0,0,1,152,176H173.4a3.94,3.94,0,0,1,4,4.17Zm62.62,11.42-2.32,22.29a4.75,4.75,0,0,1-4.62,4.17H191a4.74,4.74,0,0,1-4.61-4.17L184,243.26a70.53,70.53,0,0,1-.27-8.35l2.38-60.27a4.39,4.39,0,0,1,4.35-4.18H231a4.39,4.39,0,0,1,4.35,4.18l2.38,60.27A70.53,70.53,0,0,1,237.45,243.26Zm38.34-63.62c5.93,10.45,12.08,24.92,12.08,39.93a72.08,72.08,0,0,1-.7,10,5.43,5.43,0,0,1-4.88,4.37L251,235.77a4.15,4.15,0,0,1-4.39-3.93l-2.55-51.63a3.94,3.94,0,0,1,4-4.17h21.41A8,8,0,0,1,275.79,179.64Z" transform="translate(-31.65 -17.61)"/></svg>