<svg id="Layer_1" data-name="Layer 1" xmlns="http://www.w3.org/2000/svg" viewBox="0 0 245.58 248"><defs><style>.cls-1{fill:#000007;}</style></defs><title>Least Crowded_icon</title><path class="cls-1" d="M165.13,125.09A18.72,18.72,0,1,0,191.54,127,18.72,18.72,0,0,0,165.13,125.09Z" transform="translate(-64.51 -31.61)"/><path class="cls-1" d="M309.86,34a3.68,3.68,0,0,0-4.71-2.13c-26.3,9.9-50.3,16.5-91.78,28.06v7.57c42.39-11.78,67.46-18.67,94.36-28.8A3.66,3.66,0,0,0,309.86,34Z" transform="translate(-64.51 -31.61)"/><path class="cls-1" d="M294.17,255.23l-64.12,7.88c.27-2.44.53-4.89.8-7.32l1.68-15.5L234.09,226q.34-3.19.7-6.41a9.12,9.12,0,0,0-4.59-8.86,10.1,10.1,0,0,0-4.64-1.14l-.47,0-9.17-.39-15.41-.63c-1.81-.09-3.62-.16-5.43-.23-.69-1.51-1.59-3.47-2.34-5.09l5,.23,15.6.67,8,.35a4.93,4.93,0,0,0,.81-9.82l-.51-.06L211,193.27l-15.51-1.91-3.6-.44c-1.42-4-2.82-8-4.23-12q-1.77-5-3.55-10a7.48,7.48,0,0,0-2.18-3.21,7.74,7.74,0,0,0-4.8-1.82c-1.91-.11-3.82-.5-5.7-.78l-2.48-.36a7.9,7.9,0,0,0-8.42,4.71,13,13,0,0,0-.78,3.56c-.93,8.22-.31,16.53.5,24.75h0c.24,1.34.36,2.7.59,4,.48,2.75,1,5.49,1.72,8.19a82.47,82.47,0,0,0,5.61,15.87,24.11,24.11,0,0,0,1.48,2.62,11.16,11.16,0,0,0,4.41,3.85,11.86,11.86,0,0,0,6.1,1l9.23-.68,15.39-1.13,11-.79q-.24,4.06-.49,8.15-.47,7.89-.95,15.78c-.22,3.66-.44,7.34-.66,11l-.09,1.45-70.09,8.62.72,5.85,150.7-18.53c10.29-1.26,12.64-13.92,12.73-14.45l-5.81-1C301.8,245.69,300.08,254.5,294.17,255.23Z" transform="translate(-64.51 -31.61)"/><path class="cls-1" d="M154.55,105.7c-10.65,8.64-23.66,24.71-25,52.22-1.93,38.05,5.58,69.36,20.09,83.75,5.92,5.88,13,9,20.61,9,.55,0,1.1,0,1.66,0,23.72-1.38,34.07-2.1,34.17-2.1a7.1,7.1,0,1,0-1-14.17c-.1,0-10.4.72-34,2.1-4.19.24-7.94-1.34-11.44-4.82-11.34-11.25-17.58-39.88-15.92-73C144.57,141,151.09,127,163,117.1a51.91,51.91,0,0,1,18.26-9.89,7.11,7.11,0,0,0,5.43-6.91V76.54a6.56,6.56,0,0,0,1-.2l12.66-3.49A7.1,7.1,0,0,0,205.56,66V58.14a7.09,7.09,0,0,0-8.83-6.88l-17.51,4.41A7.11,7.11,0,0,0,174,61.35l-1.32,7.72a6.87,6.87,0,0,0-.11,1.2V71C100.07,90.38,68.5,97.21,67.32,97.48a3.65,3.65,0,0,0,.84,7.2,3.53,3.53,0,0,0,.85-.1c1.17-.27,31.65-6.83,103.52-26V95.21A69.07,69.07,0,0,0,154.55,105.7Z" transform="translate(-64.51 -31.61)"/></svg>