<svg id="Layer_1" data-name="Layer 1" xmlns="http://www.w3.org/2000/svg" xmlns:xlink="http://www.w3.org/1999/xlink" viewBox="0 0 344.77 123.78"><defs><style>.cls-1,.cls-2{fill:none;}.cls-2{stroke:#34454e;stroke-miterlimit:10;stroke-width:5px;}.cls-3{fill:#0085ca;}.cls-4{clip-path:url(#clip-path);}</style><clipPath id="clip-path" transform="translate(-393.97 -155.97)"><rect class="cls-1" x="613.88" y="155.97" width="125.12" height="83.07"/></clipPath></defs><title>SkiArea_Scale_icon</title><line class="cls-2" x1="32.53" y1="112.91" x2="270.53" y2="112.91"/><line class="cls-2" x1="32.53" y1="102.03" x2="32.53" y2="123.78"/><line class="cls-2" x1="270.53" y1="102.03" x2="270.53" y2="123.78"/><circle class="cls-3" cx="151.53" cy="112.91" r="10.5"/><path class="cls-3" d="M466.37,234.05,432.5,182.53a3.29,3.29,0,0,0-5.73.07l-32.21,51.47A3.1,3.1,0,0,0,397.3,239h66.4a3.07,3.07,0,0,0,2.67-4.95Zm-36.7-49.13a.71.71,0,0,1,.54.33l20.52,30.55c1.32,2.38.44,3.12-2.07.68,0,0-7.43-8.62-10.21-11.19a2.59,2.59,0,0,0-2.9-.28c-2.05,1.37-5.63,4.86-7.71,6.21a1.41,1.41,0,0,1-2.11-.86c-.75-3.05-1.37-9.34-2.16-12.38-.24-.92-1.13-1.09-1.9-.53-.19.14-.59.38-.79.5s-.11,0-.11,0l8.4-12.68a.58.58,0,0,1,.5-.3Zm0,0" transform="translate(-393.97 -155.97)"/><g class="cls-4"><path class="cls-3" d="M712.23,232.19l-46-70a4.47,4.47,0,0,0-7.79.08l-43.76,69.93a4.21,4.21,0,0,0,3.72,6.7h90.2a4.16,4.16,0,0,0,3.63-6.72Zm-49.85-66.74a1,1,0,0,1,.73.44L691,207.39c1.8,3.24.59,4.24-2.81.93,0,0-10.1-11.71-13.87-15.21a3.56,3.56,0,0,0-3.94-.38c-2.8,1.87-7.66,6.61-10.48,8.44A1.91,1.91,0,0,1,657,200c-1-4.15-1.86-12.69-2.93-16.82-.32-1.26-1.53-1.49-2.58-.72-.25.19-.8.52-1.08.68s-.14-.08-.14-.08l11.41-17.23a.78.78,0,0,1,.68-.39Zm0,0" transform="translate(-393.97 -155.97)"/></g><path class="cls-3" d="M738,222.43,695.62,158a4.12,4.12,0,0,0-7.17.08l-8.84,14.13a1.22,1.22,0,0,0-.08,1.08,14.91,14.91,0,0,0,1.54,2.33c.34.42.77-.3.77-.3l9.69-14.68s.26-.39.55-.39.59.41.59.41l27.55,40.77c.78,1.13-1.29,1.14-3.09-.31-2.73-2.19-8.13-6.64-10.86-8.82a3.49,3.49,0,0,0-3.64-.35,68.37,68.37,0,0,0-6.42,5,1,1,0,0,0-.21,1.37l19.27,29.32a1.89,1.89,0,0,0,1.41.94h17.94a3.83,3.83,0,0,0,3.33-6.19Zm0,0" transform="translate(-393.97 -155.97)"/></svg>