<?xml version="1.0" encoding="utf-8"?>
<!-- Generator: Adobe Illustrator 22.0.1, SVG Export Plug-In . SVG Version: 6.00 Build 0)  -->
<svg version="1.1" id="Layer_1" xmlns="http://www.w3.org/2000/svg" xmlns:xlink="http://www.w3.org/1999/xlink" x="0px" y="0px"
	 viewBox="0 0 680.6 204.1" style="enable-background:new 0 0 680.6 204.1;" xml:space="preserve">
<style type="text/css">
	.st0{fill:#34454E;}
</style>
<title>Gondola_icon</title>
<path class="st0" d="M296.7,179.7h5.6c0,0,0.1,0.6,0.2,1.4c0.2,0.9,1,1.4,1.9,1.4h58.7c0.9,0,1.7-0.6,1.9-1.4l0.2-1.4h5.6l1.9-2.9
	h-77.9L296.7,179.7z"/>
<path class="st0" d="M423.7,18.9l-2-3.4c-13.5,7.9-32.3,15.6-56,22.9c-9.4,2.9-19.6,5.7-30.5,8.4v4.1c11.3-2.8,21.9-5.7,31.6-8.7
	C390.8,34.8,410,27,423.7,18.9z"/>
<path class="st0" d="M369.6,103.1h-3.7l-1.1-2.9c-0.2-0.4-0.6-0.7-1.1-0.7h-6.2c-1.7-1.2-4.7-3.2-7.1-3.7h-13.8c0.4-1.7,2.2-2,4-2h1
	l-2-3.2h-2.1v-4.8c0.1-0.7-0.5-1.3-1.2-1.4h-1.2c-7.3,0-11.9-1.4-13.8-8.4c-0.9-3.2,0.9-14,2.8-22.7c2-0.4,3.9-0.9,5.9-1.4v-2.6h0.1
	v-2.8c0-1.1-0.9-1.9-1.9-1.9h-6.8l-0.4,1.8c0,0-0.4,1.5-0.9,3.8c-6.5,1.5-13.3,3-20.3,4.4c-42,8.8-77.3,13.2-77.7,13.3l0.5,3.9
	c0.4-0.1,35.8-4.5,78-13.2c2.4-0.5,4.8-1,7.2-1.5v2.7c-0.1,0.8,0.6,1.5,1.4,1.6c0.1,0,0.2,0,0.4-0.1l8.6-1.6
	c-2.5,13.4-1.6,16.6-1.3,17.6c2.1,7.7,7,11.3,16,11.8v1.5h-2.1l-3.2,5.1h-7.5c-2.4,0.4-5.4,2.4-7.1,3.7h-6.2c-0.4,0-0.9,0.3-1.1,0.7
	l-1.1,2.9h-6.7c-1.1,0.1-2.2,0.6-3,1.4c-3.6,4.7-14.3,20-14.3,36.8c0,20.2,12.4,34.2,12.4,34.2h81.7c0,0,12.4-14,12.4-34.2
	c0-16.8-10.8-32.2-14.3-36.8C371.8,103.8,370.8,103.2,369.6,103.1z M311.3,149c-0.1,1.4-1.3,2.5-2.7,2.4l0,0l-19.4-1.1
	c-1.5-0.1-2.7-1.2-3.1-2.7c-0.3-2.1-0.4-4.2-0.4-6.2c0-9.3,3.9-18.4,7.5-24.9c0.9-1.4,2.3-2.2,3.9-2.3h13.3c1.4,0,2.5,1.1,2.5,2.4
	c0,0.1,0,0.1,0,0.2L311.3,149z M350.3,156.1l-1.4,13.9c-0.2,1.4-1.4,2.6-2.9,2.6h-24.6c-1.5,0-2.7-1.1-2.9-2.6l-1.5-13.9
	c-0.2-1.7-0.2-3.5-0.2-5.2l1.5-37.6c0.1-1.4,1.2-2.6,2.7-2.6h25.2c1.4,0,2.6,1.2,2.7,2.6l1.5,37.6
	C350.6,152.7,350.5,154.4,350.3,156.1L350.3,156.1z M374.2,116.5c3.7,6.5,7.5,15.5,7.5,24.9c0,2.1-0.1,4.2-0.4,6.2
	c-0.3,1.5-1.6,2.6-3.1,2.7l-19.5,1.1c-1.4,0.1-2.7-1-2.7-2.4l0,0l-1.6-32.2c-0.1-1.4,0.9-2.5,2.3-2.6c0.1,0,0.1,0,0.2,0h13.3
	C371.9,114.3,373.3,115.2,374.2,116.5z"/>
<g>
	<path class="st0" d="M143.8,67.1c-3.4-16.3-17.9-28.5-34.9-28.5c-12.2,0.1-23.6,6.3-30.1,16.6c-1-0.1-1.9-0.2-2.8-0.2
		c-13.5,0-25.3,9-28.9,22C33.6,77.8,23.2,89.5,24,103.1c0.8,13.1,11.6,23.3,24.7,23.2h87.7c16.6,0.1,30.1-13.4,30.2-30
		C166.5,82.5,157.1,70.5,143.8,67.1z M136.3,115.3H48.6c-7.6,0-13.7-6.1-13.7-13.7c0-7.6,6.1-13.7,13.7-13.7c0.7,0,1.4,0.1,2.1,0.2
		l5.7,0.9l0.6-5.8c0.9-9.8,9.2-17.3,19-17.3c1.5,0,3,0.2,4.4,0.6l4.3,1l1.9-4c5.8-12.3,20.5-17.5,32.8-11.7c8,3.8,13.3,11.5,14,20.3
		l0.4,4.5l4.5,0.5c10.5,1.1,18.1,10.5,17,21C154.3,108,146.1,115.3,136.3,115.3L136.3,115.3z"/>
	<path class="st0" d="M80.9,149c-0.1-0.5-0.1-0.9-0.2-1.3c-0.1-0.4-0.1-0.8-0.2-1.1s-0.2-0.7-0.2-0.8c-0.4-1.4-1.6-2-3.1-1.5
		c-0.5,0.2-1,0.4-1.4,0.6c-0.6,0.3-1.3,0.6-2.2,1c-0.8,0.4-1.7,0.9-2.7,1.4l-1.3,0.6l1.8-9.9l-0.8-0.3c-0.8-0.2-1.7-0.4-2.6-0.6
		c-0.6-0.1-1.3-0.2-1.9-0.2c-1.2-0.1-2.3,0.8-2.4,2.1c0,0.2,0,0.3,0,0.4c0.1,0.9,0.1,1.7,0.3,2.6c0.2,1.3,0.4,2.7,0.6,4.3l0.3,1.5
		l-8.7-4.8l-0.5,0.7c-0.5,0.7-0.9,1.5-1.3,2.3c-0.4,0.6-0.6,1.3-0.8,1.9c-0.1,0.1-0.1,0.3-0.1,0.4c-0.1,0.2-0.1,0.3-0.1,0.5
		c-0.1,1,0.7,1.8,1.7,2.1c0.5,0.2,1,0.3,1.5,0.4c0.7,0.2,1.5,0.3,2.4,0.5l3,0.5c0.5,0.1,1,0.2,1.5,0.3l-7.3,6.8l0.5,0.7
		c0.6,0.7,1.1,1.3,1.7,1.9c0.4,0.4,0.9,0.8,1.4,1.2c0.4,0.4,0.9,0.7,1.5,0.7c0.7,0,1.5-0.4,1.8-1.1c0.3-0.4,0.6-0.8,0.8-1.3
		c0.4-0.6,0.7-1.3,1.2-2.2c0.5-0.8,0.9-1.7,1.4-2.7l0.7-1.3l4.3,9.2l0.8-0.4c0.4-0.2,0.7-0.4,1.2-0.6l1.1-0.5c0.4-0.2,0.7-0.4,1-0.5
		c0.3-0.2,0.5-0.3,0.8-0.5c0.6-0.5,0.9-1.2,0.9-1.9c0-0.5-0.2-1.1-0.5-1.5c-0.2-0.2-0.5-0.6-1-1.1l-1.6-1.8l-2.1-2.2l-1.1-1.1
		l9.1-1.2l0.8-0.2l-0.1-0.8C80.9,149.9,80.9,149.5,80.9,149L80.9,149z"/>
	<path class="st0" d="M111.1,175.6c-0.1-0.5-0.1-0.9-0.1-1.3s-0.1-0.8-0.2-1.1s-0.2-0.7-0.2-0.8c-0.4-1.4-1.6-2-3.1-1.5
		c-0.5,0.2-0.9,0.4-1.4,0.6l-2.2,1c-0.8,0.4-1.7,0.9-2.7,1.4l-1.3,0.7l1.8-9.9l-0.8-0.3c-0.8-0.2-1.7-0.4-2.6-0.6
		c-0.6-0.1-1.3-0.2-1.9-0.2c-1.2-0.1-2.3,0.8-2.4,2.1c0,0.2,0,0.3,0,0.4c0.1,0.9,0.1,1.7,0.3,2.6c0.2,1.3,0.4,2.7,0.6,4.3l0.3,1.5
		l-8.7-4.8l-0.5,0.7c-0.5,0.7-0.9,1.5-1.3,2.3c-0.4,0.6-0.6,1.3-0.8,1.9c-0.1,0.1-0.1,0.3-0.1,0.4c-0.1,0.2-0.1,0.3-0.1,0.5
		c-0.1,1,0.7,1.8,1.6,2.1c0.5,0.2,1,0.3,1.5,0.4c0.8,0.2,1.6,0.4,2.4,0.5l3,0.5c0.5,0.1,1,0.2,1.5,0.3l-7.3,6.8l0.5,0.7
		c0.6,0.7,1.1,1.3,1.7,1.9c0.4,0.4,0.9,0.8,1.4,1.2c0.4,0.4,0.9,0.7,1.5,0.7c0.7,0,1.5-0.4,1.8-1.1c0.3-0.4,0.6-0.8,0.8-1.3
		c0.4-0.6,0.7-1.3,1.2-2.2s0.9-1.7,1.4-2.7l0.7-1.3l4.3,9.2l0.8-0.4c0.4-0.2,0.7-0.4,1.2-0.6l1.1-0.5c0.4-0.2,0.7-0.4,1-0.5
		s0.5-0.3,0.8-0.5c0.6-0.5,0.9-1.2,0.9-1.8c0-0.5-0.2-1.1-0.5-1.5c-0.2-0.2-0.5-0.6-1-1.1l-1.6-1.7l-2.1-2.2l-1.1-1.1l9.1-1.2
		l0.8-0.2l-0.1-0.8C111.2,176.4,111.2,176,111.1,175.6L111.1,175.6z"/>
	<path class="st0" d="M142.1,142.2c-0.1-0.5-0.1-0.9-0.2-1.3c-0.1-0.4-0.1-0.7-0.2-1.1s-0.2-0.7-0.2-0.8c-0.4-1.4-1.6-1.9-3.1-1.5
		c-0.5,0.2-1,0.4-1.4,0.6c-0.6,0.3-1.3,0.6-2.2,1s-1.7,0.9-2.7,1.4l-1.3,0.7l1.8-9.9l-0.8-0.3c-0.8-0.3-1.7-0.4-2.6-0.6
		c-0.6-0.1-1.3-0.2-1.9-0.2c-1.2-0.1-2.3,0.8-2.4,2.1c0,0.2,0,0.3,0,0.4c0.1,0.9,0.1,1.7,0.3,2.6c0.2,1.3,0.4,2.7,0.6,4.3l0.3,1.5
		l-8.7-4.8l-0.5,0.7c-0.5,0.7-0.9,1.5-1.3,2.3c-0.4,0.6-0.6,1.3-0.8,1.9c-0.1,0.1-0.1,0.3-0.1,0.4c-0.2,1.1,0.5,2.2,1.6,2.5
		c0.5,0.2,1,0.3,1.5,0.4c0.8,0.2,1.6,0.4,2.4,0.5l3,0.5c0.5,0.1,1,0.1,1.5,0.3l-7.3,6.8l0.5,0.7c0.6,0.7,1.1,1.3,1.7,1.9
		c0.4,0.4,0.9,0.8,1.4,1.2c0.4,0.4,0.9,0.7,1.5,0.7c0.7,0,1.5-0.4,1.8-1.1c0.3-0.4,0.6-0.8,0.8-1.3c0.4-0.6,0.7-1.3,1.2-2.2
		s0.9-1.7,1.4-2.7l0.7-1.3l4.3,9.2l0.8-0.4c0.4-0.1,0.7-0.4,1.2-0.6l1.1-0.5c0.4-0.2,0.7-0.4,1-0.5l0.8-0.5c0.6-0.5,0.9-1.2,0.9-1.8
		c0-0.5-0.2-1.1-0.5-1.5c-0.2-0.2-0.5-0.6-1-1.1l-1.6-1.7l-2.1-2.2c-0.4-0.4-0.7-0.7-1.1-1.1l9.1-1.2l0.8-0.2l-0.1-0.8
		C142.2,143,142.2,142.6,142.1,142.2L142.1,142.2z"/>
</g>
<g>
	<path class="st0" d="M570.8,112.2c0.2-2.3-0.3-4.7-1.4-6.7c-1.1-1.9-2.8-3.6-4.8-4.7c-1-0.6-2.1-1.1-3.1-1.5
		c-0.4-0.2-0.9-0.3-1.3-0.5c-1.9-0.7-4.2-1.8-4.5-4.1c-0.1-1.1,0.1-2.2,0.6-3.2c0.4-1.1,0.9-2.1,1.6-3.1c1.3-2,2.7-3.8,4.3-5.5
		c3.3-3.5,6.9-6.6,10.8-9.4c3.8-2.8,7.7-5.3,11.8-7.6c3.8-2.2,7.8-4.2,11.8-6c1.8-0.8,3.7-1.6,5.6-2.3c0.8-0.3,1.6-0.6,2.4-0.9
		c0.3-0.1,0.7-0.2,1-0.4c0.3-0.3,0.5-0.6,0.6-1.1c0.1-0.9-0.6-1.7-1.4-1.7c-0.4,0-0.7,0.1-1,0.2l-1.3,0.4c-1.8,0.6-3.7,1.2-5.5,1.8
		c-3.4,1.2-6.7,2.6-10,4.1c-4.2,1.9-8.2,4-12.1,6.3c-4.1,2.4-8.1,5.1-11.8,8c-3.7,2.8-7.1,6.1-10,9.8c-2.6,3.5-4.9,7.8-4.3,12.2
		c0.3,2.3,1.3,4.4,2.9,6.1c1.6,1.6,3.6,2.9,5.7,3.8c1.4,0.6,2.7,1.1,3.9,2.1c0.4,0.3,0.7,0.8,1,1.3c0.2,0.5,0.3,1,0.2,1.5
		c-0.1,1.1-0.4,2.2-0.9,3.2c-1.1,2.1-2.4,4.1-4,5.8c-1.5,1.8-3.2,3.5-4.9,5c-3.6,3.2-7.4,6.2-11.4,9c-3.9,2.8-7.9,5.3-12,7.7
		c-4,2.4-8.1,4.6-12.2,6.7c-3.4,1.7-6.8,3.3-10.2,4.9c-1.7,0.8-3.5,1.6-5.3,2.3l-2.2,0.9c-0.6,0.2-1.2,0.6-1.7,1
		c-2.8,2.1-3.4,6.1-1.3,9c1,1.4,2.4,2.3,4.1,2.6c1.5,0.3,3,0.1,4.4-0.6c3.1-1.5,6.3-3.1,9.4-4.7c3.5-1.9,7-3.8,10.4-5.9
		c4-2.4,7.9-4.9,11.8-7.5c3.9-2.6,7.7-5.4,11.5-8.4s7.4-6.2,10.8-9.5c3.4-3.3,6.3-6.9,8.8-10.9C569.1,118.8,570.6,115.6,570.8,112.2
		C570.9,111.3,570.7,114.2,570.8,112.2z"/>
	<path class="st0" d="M617.1,129.2c0.4-4.7-0.1-9.5-1.6-14c-1.4-4.2-3.8-8-7-11.1c-2.7-2.6-6-4.6-9.5-5.8c-0.8-0.3-1.6-0.5-2.3-0.8
		c-1-0.4-2-0.9-2.9-1.5c-1.7-1.1-3.1-2.6-4-4.5c-1.9-4.2-0.3-9,1.8-12.8c2.4-4,5.4-7.6,9-10.5c3.5-2.9,7.3-5.4,11.3-7.5
		c1.8-1,3.7-1.8,5.7-2.6c0.8-0.3,1.6-0.6,2.4-1l1.2-0.4c0.3-0.1,0.6-0.3,0.9-0.6c0.5-0.7,0.3-1.7-0.5-2.2l0,0
		c-0.7-0.4-1.5-0.1-2.2,0.1c-1.8,0.6-3.6,1.2-5.4,1.8c-4,1.5-7.9,3.4-11.5,5.6c-4,2.4-7.7,5.3-11,8.6c-3.2,3.2-5.7,6.9-7.5,11.1
		c-1.7,4.2-2.1,9-0.4,13.3c1.7,4.3,5.1,7.5,9.1,9.6c1,0.5,2,1,3,1.4c0.5,0.2,0.9,0.4,1.4,0.6c1.9,0.9,3.7,2.1,5.2,3.7
		c3.1,3.3,5,7.5,5.5,12c0.4,4.6-0.3,9.3-2.1,13.6c-1.6,4.2-3.9,8.1-6.7,11.6c-2.9,3.6-6.1,6.8-9.7,9.7c-3.4,2.7-7,5.2-10.8,7.3
		c-1.6,0.9-3.2,1.8-4.9,2.6c-1.5,0.7-2.7,1.9-3.3,3.4s-0.7,3.3-0.1,4.8c0.6,1.6,1.8,2.9,3.4,3.6c1.5,0.7,3.3,0.8,4.9,0.3
		c0.7-0.3,1.4-0.6,2.1-1c0.7-0.4,1.5-0.9,2.2-1.3c3.7-2.2,7.2-4.7,10.5-7.4c3.5-2.8,6.7-5.8,9.7-9.1s5.7-6.9,7.9-10.8
		c2.2-3.8,4-7.9,5.1-12.2C616.4,134.2,616.9,131.7,617.1,129.2C617.3,126.5,616.8,132,617.1,129.2z"/>
	<polygon class="st0" points="479.4,150.4 479.4,169.3 483.8,169.3 483.8,129.8 458.2,150.4 	"/>
	<polygon class="st0" points="634.2,150.4 634.2,169.3 638.6,169.3 638.6,129.8 613,150.4 	"/>
	<polygon class="st0" points="542.5,106.3 544.8,106.3 544.8,85 531.1,96.1 542.5,96.1 	"/>
	<polygon class="st0" points="617,106.3 617,85 603.2,96.1 614.6,96.1 614.6,106.3 	"/>
	<polygon class="st0" points="592.4,56.1 593.5,56.1 593.5,46.3 587.2,51.4 592.4,51.4 	"/>
	<polygon class="st0" points="625.5,56.1 626.5,56.1 626.5,46.3 620.2,51.4 625.5,51.4 	"/>
	<path class="st0" d="M478.6,121.6c4,2.8,15.3,4.3,24.8,4.7v7.5h10.8v-7.5c9.4-0.4,20.8-1.8,24.8-4.7c-5.9-3.1-11.4-9.8-16.1-16.7
		c4.1-0.6,7.7-1.5,9.5-2.7c-5.3-2.8-10.2-9.4-14.3-15.6c3.7-0.4,7.1-1.2,8.6-2.3c-8.4-4.4-15.7-21.8-17.8-21.8s-9.4,17.4-17.8,21.8
		c1.5,1.1,4.9,1.8,8.6,2.3c-4,6.2-9,12.9-14.3,15.6c1.7,1.3,5.3,2.2,9.4,2.7C490,111.8,484.4,118.6,478.6,121.6z"/>
	<path class="st0" d="M656.1,90.6c-3-1.6-5.9-5.1-8.4-8.7c2.1-0.3,4-0.8,4.9-1.4c-2.7-1.4-5.3-4.9-7.4-8.1c1.9-0.2,3.7-0.6,4.5-1.2
		c-4.4-2.3-8.2-11.3-9.3-11.3s-4.9,9.1-9.2,11.3c0.8,0.6,2.5,0.9,4.5,1.2c-2.1,3.2-4.7,6.7-7.4,8.1c0.9,0.6,2.8,1.1,4.9,1.4
		c-2.5,3.6-5.3,7.1-8.4,8.7c2.1,1.5,8,2.2,12.9,2.4v3.9h5.6V93C648.1,92.8,654,92.1,656.1,90.6z"/>
	<path class="st0" d="M619.4,76.4c3-0.1,6.7-0.5,8-1.2c-1.9-0.8-3.7-2.5-5.2-4.3c1-0.1,2.1-0.3,3-0.7c-1.7-0.7-3.3-2.4-4.6-4
		c0.9,0,1.9-0.2,2.8-0.6c-2.7-1.1-5.1-5.6-5.7-5.6s-3,4.5-5.7,5.6c0.9,0.3,1.8,0.5,2.8,0.6c-1.3,1.6-2.9,3.3-4.6,4
		c1,0.4,2,0.6,3.1,0.7c-1.5,1.8-3.3,3.5-5.2,4.3c1.3,0.7,5,1.1,8,1.2v1.9h3.5L619.4,76.4z"/>
</g>
</svg>
