<svg id="Layer_1" data-name="Layer 1" xmlns="http://www.w3.org/2000/svg" viewBox="0 0 274.06 214.79"><defs><style>.cls-1{fill:#000007;}</style></defs><title>Skier_icon</title><path class="cls-1" d="M301.09,133.92a29.59,29.59,0,1,0-29.59-29.59A29.59,29.59,0,0,0,301.09,133.92Z" transform="translate(-56.62 -49.78)"/><path class="cls-1" d="M266.86,253.79,164.35,191.91l64-33.9a16.76,16.76,0,0,0,4.89-4,16.38,16.38,0,0,0,1.43-19c-30.62-17.68-64.53-37.22-90.07-52a22.59,22.59,0,0,0-4.53,5.26,22.12,22.12,0,0,0,7.21,30.43l41.12,25.37-49.83,32.2L61.45,129.79l-4.83,8L262,261.77a19,19,0,0,0,10,2.8c10.45,0,19.42-7.9,19.91-8.34l-6.23-6.94C285.64,249.38,274.91,258.66,266.86,253.79Zm-94.8-135.55h0c-.09.05-.06,0-.05,0a.07.07,0,0,1,.05,0h0Z" transform="translate(-56.62 -49.78)"/><path class="cls-1" d="M313.59,160.08a7.79,7.79,0,0,0-6-9.24l-.14,0-25.68-5.44-15.12-8.74-2.08-33.75c-.42-6.58-7.28-18.83-7.28-18.83-2-4.08-7.41-6.2-9.92-7l-1.9-.65h0l-2.93-1.07-2.74-.94c-1.82-.61-3.65-1.18-5.49-1.73-3.69-1.09-7.44-2.07-11.32-2.89a111.47,111.47,0,0,0-12.11-1.91c-2.12-.2-4.3-.34-6.56-.38-1.14,0-2.29,0-3.47,0l-.44,0h-.22c-.11,0,.21,0-.26,0h-.79l-1.31,0-1.72.12-1.66.14c-1,.09-2.1.19-3.13.31-2.08.23-4.13.53-6.17.85q-6.12,1-12,2.53c-3.95,1-7.83,2.17-11.67,3.49l-1.05.37C134.92,60.65,116.62,50.12,116,49.78l-2.88,5c1.17.67,70.53,40.63,128.73,74.21l5.8,22.86.1.66a9.07,9.07,0,0,0,7.87,7.66l49.38,6a11,11,0,0,0,1.28,0c7.34,4.25,12.24,7.11,13.76,8l3-4.93c-1.29-.79-5.08-3-10.76-6.31A7.71,7.71,0,0,0,313.59,160.08Z" transform="translate(-56.62 -49.78)"/></svg>