<svg id="Layer_1" data-name="Layer 1" xmlns="http://www.w3.org/2000/svg" viewBox="0 0 312.5 121.44"><defs><style>.cls-1{fill:none;stroke:#34454e;stroke-miterlimit:10;stroke-width:5px;}.cls-2{fill:#0085ca;}</style></defs><title>SkiGuests_Scale_icon</title><line class="cls-1" x1="25.11" y1="110.56" x2="263.11" y2="110.56"/><line class="cls-1" x1="25.11" y1="99.69" x2="25.11" y2="121.44"/><line class="cls-1" x1="263.11" y1="99.69" x2="263.11" y2="121.44"/><circle class="cls-2" cx="144.11" cy="110.56" r="10.5"/><path class="cls-2" d="M444.93,192.29a6,6,0,1,0,6,6,6,6,0,0,0-6-6Zm-34,0a6,6,0,1,0,6,6,6,6,0,0,0-6-6Zm17-12a8.88,8.88,0,1,0,8.87,8.88,8.87,8.87,0,0,0-8.87-8.88Zm26.55,53.16H444V214.31a16.18,16.18,0,0,0-1.8-7.27,9.42,9.42,0,0,1,12.27,9.17Zm-42.67-19.16v19.16H401.39V216.21A9.59,9.59,0,0,1,411,206.6a9,9,0,0,1,2.69.47,15.61,15.61,0,0,0-1.83,7.24ZM414,239h27.83V214.31a13.92,13.92,0,1,0-27.83,0Z" transform="translate(-401.39 -158.31)"/><path class="cls-2" d="M704.8,184.87a5.55,5.55,0,1,0,5.51,5.55,5.58,5.58,0,0,0-5.51-5.55Zm-79.68,0a5.55,5.55,0,1,0,5.51,5.55,5.54,5.54,0,0,0-5.51-5.55Zm63.17-10.09a8.26,8.26,0,1,0,8.26,8.25,8.28,8.28,0,0,0-8.26-8.25ZM713.89,225h-9.4v-17.3a16.08,16.08,0,0,0-2.29-8.16,9.24,9.24,0,0,1,2.6-.41,9.14,9.14,0,0,1,9.09,9.12ZM641.6,174.78a8.26,8.26,0,1,0,8.26,8.25,8.29,8.29,0,0,0-8.26-8.25ZM625.12,199.1a9.28,9.28,0,0,1,2.58.41,16.08,16.08,0,0,0-2.29,8.16V225H616V208.22a9.12,9.12,0,0,1,9.12-9.12ZM665,158.31a12.2,12.2,0,1,0,12.2,12.2,12.21,12.21,0,0,0-12.2-12.2Zm36.51,73.08h-14.4V205.05a22.13,22.13,0,0,0-2.48-10,13,13,0,0,1,16.88,12.61Zm-58.67-26.34v26.34H628.44V207.67a13.17,13.17,0,0,1,13.16-13.21,12.51,12.51,0,0,1,3.71.64,21.37,21.37,0,0,0-2.52,10Zm3,33.95h38.26V205.05a19.13,19.13,0,0,0-38.26,0Z" transform="translate(-401.39 -158.31)"/></svg>