<?xml version="1.0" encoding="utf-8"?>
<!-- Generator: Adobe Illustrator 22.0.1, SVG Export Plug-In . SVG Version: 6.00 Build 0)  -->
<svg version="1.1" id="Layer_1" xmlns="http://www.w3.org/2000/svg" xmlns:xlink="http://www.w3.org/1999/xlink" x="0px" y="0px"
	 viewBox="0 0 679.2 211.4" style="enable-background:new 0 0 679.2 211.4;" xml:space="preserve">
<style type="text/css">
	.st0{fill:#34454E;}
</style>
<title>Snowboarder_icon</title>
<g>
	<path class="st0" d="M322.7,36.8l-1.3-13c-0.1-1.2-1.2-2-2.4-1.9c-1,0.1-1.8,0.9-1.9,1.9v0.1l-1.2,9.9l-8.3,1.7L295,38l-1.4,0.2
		l-11.4,0.5l-10.4-6.4c-1-0.6-2.3-0.3-3,0.7c-0.5,0.9-0.4,2,0.3,2.7l0,0l9.8,9.4c0.3,0.3,0.8,0.5,1.3,0.6l0.8,0.1l12.4,0.3h0.1
		c0.1,0,0.2,0,0.3,0c0.1,0.1,0.1,0.2,0.2,0.3c0.3,0.7,0.6,1.4,0.8,2.1c0.4,1.3,0.7,2.6,0.6,3.9v0.2l0,0v-0.1v0.7l-8.4-3.9l-0.5-0.2
		c-0.9-0.5-2-0.6-3-0.3L263,54.7c-0.5,0.2-1,0.4-1.4,0.8L253,41c-1.1-1.8-0.5-4.1,1.3-5.2l-1.6-2.6c-3.2,2-4.2,6.1-2.3,9.4
		l35.5,58.1c1.2,2,3.4,3.2,5.8,3.2c1.2,0,2.5-0.3,3.5-1l-1.6-2.6c-1.8,1.1-4.1,0.5-5.2-1.3l-6.1-10c0.4-0.1,0.8-0.3,1.2-0.6
		l14.8-11.1c0.3-0.3,0.6-0.6,0.9-1l0.3-0.5L305,67c0.4-0.4,0.8-0.9,1-1.4c0-0.1,0.1-0.1,0.1-0.2c0.4-0.5,0.8-1,1.1-1.5
		c0.7-1,1.4-2.1,2-3.1c0.6-1.1,1.1-2.3,1.6-3.5c0.2-0.6,0.4-1.2,0.6-1.9c0.2-0.7,0.3-1.3,0.4-2v-0.3v-0.3l0.1-0.6v-0.9
		c0-0.6,0-1.1,0-1.7s0-1.1,0-1.7s-0.1-1.1-0.1-1.7s-0.1-1.1-0.2-1.7s-0.1-1.1-0.2-1.7c0-0.1,0-0.3-0.1-0.4l8.6-2.4l0.6-0.2
		C322,39.5,322.8,38.2,322.7,36.8z M279,83.2l-0.1,0.1l-13.4-21.9l18.2-3.2l9.8,6.6l-2.2,6.5L279,83.2z"/>
	<path class="st0" d="M299.6,34.7c5.1,0,9.2-4.1,9.2-9.2s-4.1-9.2-9.2-9.2s-9.2,4.1-9.2,9.2l0,0C290.4,30.6,294.5,34.7,299.6,34.7
		L299.6,34.7z"/>
</g>
<g>
	<path class="st0" d="M520.2,36.8l-1.3-13c-0.1-1.2-1.2-2-2.4-1.9c-1,0.1-1.8,0.9-1.9,1.9v0.1l-1.2,9.9l-8.3,1.7L492.5,38l-1.4,0.2
		l-11.4,0.5l-10.4-6.4c-1-0.6-2.3-0.3-3,0.7c-0.5,0.9-0.4,2,0.3,2.7l0,0l9.8,9.4c0.3,0.3,0.8,0.5,1.3,0.6l0.8,0.1l12.4,0.3h0.1
		c0.1,0,0.2,0,0.3,0c0.1,0.1,0.1,0.2,0.2,0.3c0.3,0.7,0.6,1.4,0.8,2.1c0.4,1.3,0.7,2.6,0.6,3.9v0.2l0,0v-0.1v0.7l-8.4-3.9l-0.5-0.2
		c-0.9-0.5-2-0.6-3-0.3l-20.5,5.9c-0.5,0.2-1,0.4-1.4,0.8L450.5,41c-1.1-1.8-0.5-4.1,1.3-5.2l-1.6-2.6c-3.2,2-4.2,6.1-2.3,9.4
		l35.5,58.1c1.2,2,3.4,3.2,5.8,3.2c1.2,0,2.5-0.3,3.5-1l-1.6-2.6c-1.8,1.1-4.1,0.5-5.2-1.3l-6.1-10c0.4-0.1,0.8-0.3,1.2-0.6
		l14.8-11.1c0.3-0.3,0.6-0.6,0.9-1l0.3-0.5l5.5-8.9c0.4-0.4,0.8-0.9,1-1.4c0-0.1,0.1-0.1,0.1-0.2c0.4-0.5,0.8-1,1.1-1.5
		c0.7-1,1.4-2.1,2-3.1c0.6-1.1,1.1-2.3,1.6-3.5c0.2-0.6,0.4-1.2,0.6-1.9c0.2-0.7,0.3-1.3,0.4-2V53v-0.3l0.1-0.6v-0.9
		c0-0.6,0-1.1,0-1.7s0-1.1,0-1.7s-0.1-1.1-0.1-1.7s-0.1-1.1-0.2-1.7c-0.1-0.6-0.1-1.1-0.2-1.7c0-0.1,0-0.3-0.1-0.4l8.6-2.4l0.6-0.2
		C519.5,39.5,520.3,38.2,520.2,36.8z M476.5,83.2l-0.1,0.1L463,61.4l18.2-3.2l9.8,6.6l-2.2,6.5L476.5,83.2z"/>
	<path class="st0" d="M497.1,34.7c5.1,0,9.2-4.1,9.2-9.2s-4.1-9.2-9.2-9.2c-5.1,0-9.2,4.1-9.2,9.2l0,0
		C487.9,30.6,492,34.7,497.1,34.7L497.1,34.7z"/>
</g>
<g>
	<path class="st0" d="M471.2,130.8l-1.3-13c-0.1-1.2-1.2-2-2.4-1.9c-1,0.1-1.8,0.9-1.9,1.9v0.1l-1.2,9.9l-8.3,1.7l-12.7,2.6
		l-1.4,0.2l-11.4,0.5l-10.4-6.4c-1-0.6-2.3-0.3-3,0.7c-0.5,0.9-0.4,2,0.3,2.7l0,0l9.8,9.4c0.3,0.3,0.8,0.5,1.3,0.6l0.8,0.1l12.4,0.3
		h0.1c0.1,0,0.2,0,0.3,0c0.1,0.1,0.1,0.2,0.2,0.3c0.3,0.7,0.6,1.4,0.8,2.1c0.4,1.3,0.7,2.6,0.6,3.9v0.2l0,0v-0.1v0.7l-8.4-3.9
		l-0.5-0.2c-0.9-0.5-2-0.6-3-0.3l-20.5,5.9c-0.5,0.2-1,0.4-1.4,0.8l-8.8-14.4c-1.1-1.8-0.5-4.1,1.3-5.2l-1.6-2.6
		c-3.2,2-4.2,6.1-2.3,9.4l35.5,58.1c1.2,2,3.4,3.2,5.8,3.2c1.2,0,2.5-0.3,3.5-1l-1.6-2.6c-1.8,1.1-4.1,0.5-5.2-1.3l-6.1-10
		c0.4-0.1,0.8-0.3,1.2-0.6l14.8-11.1c0.3-0.3,0.6-0.6,0.9-1l0.3-0.5l5.5-8.9c0.4-0.4,0.8-0.9,1-1.4c0-0.1,0.1-0.1,0.1-0.2
		c0.4-0.5,0.8-1,1.1-1.5c0.7-1,1.4-2.1,2-3.1c0.6-1.1,1.1-2.3,1.6-3.5c0.2-0.6,0.4-1.2,0.6-1.9s0.3-1.3,0.4-2v-0.3v-0.3l0.1-0.6
		v-0.9c0-0.6,0-1.1,0-1.7s0-1.1,0-1.7c0-0.6-0.1-1.1-0.1-1.7s-0.1-1.1-0.2-1.7s-0.1-1.1-0.2-1.7c0-0.1,0-0.3-0.1-0.4l8.6-2.4
		l0.6-0.2C470.5,133.5,471.3,132.2,471.2,130.8z M427.5,177.2l-0.1,0.1L414,155.4l18.2-3.2l9.8,6.6l-2.2,6.5L427.5,177.2z"/>
	<path class="st0" d="M448.1,128.7c5.1,0,9.2-4.1,9.2-9.2s-4.1-9.2-9.2-9.2s-9.2,4.1-9.2,9.2l0,0C438.9,124.6,443,128.7,448.1,128.7
		L448.1,128.7z"/>
</g>
<g>
	<path class="st0" d="M279.2,130.8l-1.3-13c-0.1-1.2-1.2-2-2.4-1.9c-1,0.1-1.8,0.9-1.9,1.9v0.1l-1.2,9.9l-8.3,1.7l-12.7,2.6
		l-1.4,0.2l-11.4,0.5l-10.4-6.4c-1-0.6-2.3-0.3-3,0.7c-0.5,0.9-0.4,2,0.3,2.7l0,0l9.8,9.4c0.3,0.3,0.8,0.5,1.3,0.6l0.8,0.1l12.4,0.3
		h0.1c0.1,0,0.2,0,0.3,0c0.1,0.1,0.1,0.2,0.2,0.3c0.3,0.7,0.6,1.4,0.8,2.1c0.4,1.3,0.7,2.6,0.6,3.9v0.2l0,0v-0.1v0.7l-8.4-3.9
		l-0.5-0.2c-0.9-0.5-2-0.6-3-0.3l-20.5,5.9c-0.5,0.2-1,0.4-1.4,0.8l-8.8-14.4c-1.1-1.8-0.5-4.1,1.3-5.2l-1.6-2.6
		c-3.2,2-4.2,6.1-2.3,9.4l35.5,58.1c1.2,2,3.4,3.2,5.8,3.2c1.2,0,2.5-0.3,3.5-1l-1.6-2.6c-1.8,1.1-4.1,0.5-5.2-1.3l-6.1-10
		c0.4-0.1,0.8-0.3,1.2-0.6l14.8-11.1c0.3-0.3,0.6-0.6,0.9-1l0.3-0.5l5.5-8.9c0.4-0.4,0.8-0.9,1-1.4c0-0.1,0.1-0.1,0.1-0.2
		c0.4-0.5,0.8-1,1.1-1.5c0.7-1,1.4-2.1,2-3.1c0.6-1.1,1.1-2.3,1.6-3.5c0.2-0.6,0.4-1.2,0.6-1.9s0.3-1.3,0.4-2v-0.3v-0.3l0.1-0.6
		v-0.9c0-0.6,0-1.1,0-1.7s0-1.1,0-1.7c0-0.6-0.1-1.1-0.1-1.7s-0.1-1.1-0.2-1.7s-0.1-1.1-0.2-1.7c0-0.1,0-0.3-0.1-0.4l8.6-2.4
		l0.6-0.2C278.5,133.5,279.3,132.2,279.2,130.8z M235.5,177.2l-0.1,0.1L222,155.4l18.2-3.2l9.8,6.6l-2.2,6.5L235.5,177.2z"/>
	<path class="st0" d="M256.1,128.7c5.1,0,9.2-4.1,9.2-9.2s-4.1-9.2-9.2-9.2s-9.2,4.1-9.2,9.2l0,0C246.9,124.6,251,128.7,256.1,128.7
		L256.1,128.7z"/>
</g>
<g>
	<path class="st0" d="M82.2,130.8l-1.3-13c-0.1-1.2-1.2-2-2.4-1.9c-1,0.1-1.8,0.9-1.9,1.9v0.1l-1.2,9.9l-8.3,1.7L54.5,132l-1.4,0.2
		l-11.4,0.5l-10.4-6.4c-1-0.6-2.3-0.3-3,0.7c-0.5,0.9-0.4,2,0.3,2.7l0,0l9.8,9.4c0.3,0.3,0.8,0.5,1.3,0.6l0.8,0.1l12.4,0.3H53
		c0.1,0,0.2,0,0.3,0c0.1,0.1,0.1,0.2,0.2,0.3c0.3,0.7,0.6,1.4,0.8,2.1c0.4,1.3,0.7,2.6,0.6,3.9v0.2l0,0v-0.1v0.7l-8.4-3.9l-0.5-0.2
		c-0.9-0.5-2-0.6-3-0.3l-20.5,5.9c-0.5,0.2-1,0.4-1.4,0.8L12.5,135c-1.1-1.8-0.5-4.1,1.3-5.2l-1.6-2.6c-3.2,2-4.2,6.1-2.3,9.4
		l35.5,58.1c1.2,2,3.4,3.2,5.8,3.2c1.2,0,2.5-0.3,3.5-1l-1.6-2.6c-1.8,1.1-4.1,0.5-5.2-1.3l-6.1-10c0.4-0.1,0.8-0.3,1.2-0.6
		l14.8-11.1c0.3-0.3,0.6-0.6,0.9-1l0.3-0.5l5.5-8.9c0.4-0.4,0.8-0.9,1-1.4c0-0.1,0.1-0.1,0.1-0.2c0.4-0.5,0.8-1,1.1-1.5
		c0.7-1,1.4-2.1,2-3.1c0.6-1.1,1.1-2.3,1.6-3.5c0.2-0.6,0.4-1.2,0.6-1.9s0.3-1.3,0.4-2V147v-0.3l0.1-0.6v-0.9c0-0.6,0-1.1,0-1.7
		s0-1.1,0-1.7c0-0.6-0.1-1.1-0.1-1.7s-0.1-1.1-0.2-1.7s-0.1-1.1-0.2-1.7c0-0.1,0-0.3-0.1-0.4l8.6-2.4l0.6-0.2
		C81.5,133.5,82.3,132.2,82.2,130.8z M38.5,177.2l-0.1,0.1L25,155.4l18.2-3.2l9.8,6.6l-2.2,6.5L38.5,177.2z"/>
	<path class="st0" d="M59.1,128.7c5.1,0,9.2-4.1,9.2-9.2s-4.1-9.2-9.2-9.2s-9.2,4.1-9.2,9.2l0,0C49.9,124.6,54,128.7,59.1,128.7
		L59.1,128.7z"/>
</g>
<g>
	<path class="st0" d="M664.2,130.8l-1.3-13c-0.1-1.2-1.2-2-2.4-1.9c-1,0.1-1.8,0.9-1.9,1.9v0.1l-1.2,9.9l-8.3,1.7l-12.7,2.6
		l-1.4,0.2l-11.4,0.5l-10.4-6.4c-1-0.6-2.3-0.3-3,0.7c-0.5,0.9-0.4,2,0.3,2.7l0,0l9.8,9.4c0.3,0.3,0.8,0.5,1.3,0.6l0.8,0.1l12.4,0.3
		h0.1c0.1,0,0.2,0,0.3,0c0.1,0.1,0.1,0.2,0.2,0.3c0.3,0.7,0.6,1.4,0.8,2.1c0.4,1.3,0.7,2.6,0.6,3.9v0.2l0,0v-0.1v0.7l-8.4-3.9
		l-0.5-0.2c-0.9-0.5-2-0.6-3-0.3l-20.5,5.9c-0.5,0.2-1,0.4-1.4,0.8l-8.8-14.4c-1.1-1.8-0.5-4.1,1.3-5.2l-1.6-2.6
		c-3.2,2-4.2,6.1-2.3,9.4l35.5,58.1c1.2,2,3.4,3.2,5.8,3.2c1.2,0,2.5-0.3,3.5-1l-1.6-2.6c-1.8,1.1-4.1,0.5-5.2-1.3l-6.1-10
		c0.4-0.1,0.8-0.3,1.2-0.6l14.8-11.1c0.3-0.3,0.6-0.6,0.9-1l0.3-0.5l5.5-8.9c0.4-0.4,0.8-0.9,1-1.4c0-0.1,0.1-0.1,0.1-0.2
		c0.4-0.5,0.8-1,1.1-1.5c0.7-1,1.4-2.1,2-3.1c0.6-1.1,1.1-2.3,1.6-3.5c0.2-0.6,0.4-1.2,0.6-1.9c0.2-0.7,0.3-1.3,0.4-2v-0.3v-0.3
		l0.1-0.6v-0.9c0-0.6,0-1.1,0-1.7s0-1.1,0-1.7c0-0.6-0.1-1.1-0.1-1.7c0-0.6-0.1-1.1-0.2-1.7c-0.1-0.6-0.1-1.1-0.2-1.7
		c0-0.1,0-0.3-0.1-0.4l8.6-2.4l0.6-0.2C663.5,133.5,664.3,132.2,664.2,130.8z M620.5,177.2l-0.1,0.1L607,155.4l18.2-3.2l9.8,6.6
		l-2.2,6.5L620.5,177.2z"/>
	<path class="st0" d="M641.1,128.7c5.1,0,9.2-4.1,9.2-9.2s-4.1-9.2-9.2-9.2c-5.1,0-9.2,4.1-9.2,9.2l0,0
		C631.9,124.6,636,128.7,641.1,128.7L641.1,128.7z"/>
</g>
<g>
	<path class="st0" d="M130.3,36.8l-1.3-13c-0.1-1.2-1.2-2-2.4-1.9c-1,0.1-1.8,0.9-1.9,1.9v0.1l-1.2,9.9l-8.3,1.7L102.6,38l-1.4,0.2
		l-11.4,0.5l-10.4-6.4c-1-0.6-2.3-0.3-3,0.7c-0.5,0.9-0.4,2,0.3,2.7l0,0l9.8,9.4c0.3,0.3,0.8,0.5,1.3,0.6l0.8,0.1l12.4,0.3h0.1
		c0.1,0,0.2,0,0.3,0c0.1,0.1,0.1,0.2,0.2,0.3c0.3,0.7,0.6,1.4,0.8,2.1c0.4,1.3,0.7,2.6,0.6,3.9v0.2l0,0v-0.1v0.7l-8.4-3.9l-0.5-0.2
		c-0.9-0.5-2-0.6-3-0.3l-20.5,5.9c-0.5,0.2-1,0.4-1.4,0.8L60.6,41c-1.1-1.8-0.5-4.1,1.3-5.2l-1.6-2.6c-3.2,2-4.2,6.1-2.3,9.4
		l35.5,58.1c1.2,2,3.4,3.2,5.8,3.2c1.2,0,2.5-0.3,3.5-1l-1.6-2.6c-1.8,1.1-4.1,0.5-5.2-1.3l-6.1-10c0.4-0.1,0.8-0.3,1.2-0.6
		l14.8-11.1c0.3-0.3,0.6-0.6,0.9-1l0.3-0.5l5.5-8.9c0.4-0.4,0.8-0.9,1-1.4c0-0.1,0.1-0.1,0.1-0.2c0.4-0.5,0.8-1,1.1-1.5
		c0.7-1,1.4-2.1,2-3.1c0.6-1.1,1.1-2.3,1.6-3.5c0.2-0.6,0.4-1.2,0.6-1.9c0.2-0.7,0.3-1.3,0.4-2V53v-0.3l0.1-0.6v-0.9
		c0-0.6,0-1.1,0-1.7s0-1.1,0-1.7s-0.1-1.1-0.1-1.7s-0.1-1.1-0.2-1.7s-0.1-1.1-0.2-1.7c0-0.1,0-0.3-0.1-0.4l8.6-2.4l0.6-0.2
		C129.6,39.5,130.4,38.2,130.3,36.8z M86.6,83.2L86.6,83.2L73,61.4l18.2-3.2l9.8,6.6l-2.2,6.5L86.6,83.2z"/>
	<path class="st0" d="M107.2,34.7c5.1,0,9.2-4.1,9.2-9.2s-4.1-9.2-9.2-9.2c-5.1,0-9.2,4.1-9.2,9.2l0,0
		C98,30.6,102.1,34.7,107.2,34.7L107.2,34.7z"/>
</g>
<g>
	<path class="st0" d="M224.8,53.8c5.8,0,10.4-4.7,10.4-10.4S230.5,33,224.8,33s-10.4,4.7-10.4,10.4l0,0
		C214.4,49.2,219,53.8,224.8,53.8z"/>
	<path class="st0" d="M212.7,96.2l-36.2-21.8l22.6-12c0.7-0.4,1.2-0.8,1.7-1.4c1.6-1.9,1.8-4.6,0.5-6.7
		c-10.8-6.2-22.8-13.1-31.8-18.4c-0.6,0.5-1.2,1.2-1.6,1.9c-2.3,3.7-1.1,8.5,2.5,10.7l14.5,9l-17.6,11.4l-27.2-16.4l-1.7,2.8L211,99
		c1.1,0.7,2.3,1,3.5,1c3.7,0,6.9-2.8,7-2.9l-2.2-2.5C219.3,94.6,215.6,97.9,212.7,96.2z M179.3,48.3L179.3,48.3
		C179.2,48.3,179.2,48.3,179.3,48.3C179.2,48.3,179.2,48.3,179.3,48.3L179.3,48.3z"/>
	<path class="st0" d="M229.2,63.1c0.3-1.5-0.6-2.9-2.1-3.3l0,0l0,0l-9.1-1.9l-5.3-3.1L212,42.9c-0.1-2.3-2.6-6.6-2.6-6.6
		c-0.7-1.4-2.6-2.2-3.5-2.5l-0.7-0.2l0,0l-1-0.4l-1-0.3c-0.6-0.2-1.3-0.4-1.9-0.6c-1.3-0.4-2.6-0.7-4-1s-2.8-0.5-4.3-0.7
		c-0.7-0.1-1.5-0.1-2.3-0.1c-0.4,0-0.8,0-1.2,0h-0.2h-0.1c0,0,0.1,0-0.1,0h-0.3h-0.5h-0.6h-0.6c-0.4,0-0.7,0.1-1.1,0.1
		c-0.7,0.1-1.5,0.2-2.2,0.3c-1.4,0.2-2.9,0.5-4.2,0.9c-1.4,0.4-2.8,0.8-4.1,1.2l-0.4,0.1c-9-5.2-15.5-8.9-15.7-9l-1,1.8
		c0.4,0.2,24.9,14.3,45.4,26.2l2,8.1v0.2c0.2,1.4,1.3,2.5,2.8,2.7l17.4,2.1c0.2,0,0.3,0,0.5,0c2.6,1.5,4.3,2.5,4.9,2.8l1.1-1.7
		c-0.5-0.3-1.8-1.1-3.8-2.2C229,63.8,229.1,63.4,229.2,63.1z"/>
</g>
<g>
	<path class="st0" d="M418.8,53.8c5.8,0,10.4-4.7,10.4-10.4S424.5,33,418.8,33s-10.4,4.7-10.4,10.4l0,0
		C408.4,49.2,413,53.8,418.8,53.8z"/>
	<path class="st0" d="M406.7,96.2l-36.2-21.8l22.6-12c0.7-0.4,1.2-0.8,1.7-1.4c1.6-1.9,1.8-4.6,0.5-6.7
		c-10.8-6.2-22.8-13.1-31.8-18.4c-0.6,0.5-1.2,1.2-1.6,1.9c-2.3,3.7-1.1,8.5,2.5,10.7l14.5,9l-17.6,11.4l-27.2-16.4l-1.7,2.8L405,99
		c1.1,0.7,2.3,1,3.5,1c3.7,0,6.9-2.8,7-2.9l-2.2-2.5C413.3,94.6,409.6,97.9,406.7,96.2z M373.3,48.3L373.3,48.3
		C373.2,48.3,373.2,48.3,373.3,48.3C373.2,48.3,373.2,48.3,373.3,48.3L373.3,48.3z"/>
	<path class="st0" d="M423.2,63.1c0.3-1.5-0.6-2.9-2.1-3.3l0,0l0,0l-9.1-1.9l-5.3-3.1L406,42.9c-0.1-2.3-2.6-6.6-2.6-6.6
		c-0.7-1.4-2.6-2.2-3.5-2.5l-0.7-0.2l0,0l-1-0.4l-1-0.3c-0.6-0.2-1.3-0.4-1.9-0.6c-1.3-0.4-2.6-0.7-4-1s-2.8-0.5-4.3-0.7
		c-0.7-0.1-1.5-0.1-2.3-0.1c-0.4,0-0.8,0-1.2,0h-0.2h-0.1c0,0,0.1,0-0.1,0h-0.3h-0.5h-0.6h-0.6c-0.4,0-0.7,0.1-1.1,0.1
		c-0.7,0.1-1.5,0.2-2.2,0.3c-1.4,0.2-2.9,0.5-4.2,0.9c-1.4,0.4-2.8,0.8-4.1,1.2l-0.4,0.1c-9-5.2-15.5-8.9-15.7-9l-1,1.8
		c0.4,0.2,24.9,14.3,45.4,26.2l2,8.1v0.2c0.2,1.4,1.3,2.5,2.8,2.7l17.4,2.1c0.2,0,0.3,0,0.5,0c2.6,1.5,4.3,2.5,4.9,2.8l1.1-1.7
		c-0.5-0.3-1.8-1.1-3.8-2.2C423,63.8,423.1,63.4,423.2,63.1z"/>
</g>
<g>
	<path class="st0" d="M617.3,53.8c5.8,0,10.4-4.7,10.4-10.4S623,33,617.3,33s-10.4,4.7-10.4,10.4l0,0
		C606.9,49.2,611.5,53.8,617.3,53.8z"/>
	<path class="st0" d="M605.2,96.2L569,74.3l22.6-12c0.7-0.4,1.2-0.8,1.7-1.4c1.6-1.9,1.8-4.6,0.5-6.7C583,48,571.1,41.1,562.1,35.9
		c-0.6,0.5-1.2,1.2-1.6,1.9c-2.3,3.7-1.1,8.5,2.5,10.7l14.5,9l-17.6,11.4l-27.2-16.4l-1.7,2.8l72.5,43.8c1.1,0.7,2.3,1,3.5,1
		c3.7,0,6.9-2.8,7-2.9l-2.2-2.5C611.8,94.6,608.1,97.9,605.2,96.2z M571.8,48.3L571.8,48.3C571.7,48.3,571.7,48.3,571.8,48.3
		C571.7,48.3,571.7,48.3,571.8,48.3L571.8,48.3z"/>
	<path class="st0" d="M621.7,63.1c0.3-1.5-0.6-2.9-2.1-3.3l0,0l0,0l-9.1-1.9l-5.3-3.1l-0.7-11.9c-0.1-2.3-2.6-6.6-2.6-6.6
		c-0.7-1.4-2.6-2.2-3.5-2.5l-0.7-0.2l0,0l-1-0.4l-1-0.3c-0.6-0.2-1.3-0.4-1.9-0.6c-1.3-0.4-2.6-0.7-4-1s-2.8-0.5-4.3-0.7
		c-0.7-0.1-1.5-0.1-2.3-0.1c-0.4,0-0.8,0-1.2,0h-0.2h-0.1c0,0,0.1,0-0.1,0h-0.3h-0.5h-0.6h-0.6c-0.4,0-0.7,0.1-1.1,0.1
		c-0.7,0.1-1.5,0.2-2.2,0.3c-1.4,0.2-2.9,0.5-4.2,0.9c-1.4,0.4-2.8,0.8-4.1,1.2l-0.4,0.1c-9-5.2-15.5-8.9-15.7-9l-1,1.8
		c0.4,0.2,24.9,14.3,45.4,26.2l2,8.1v0.2c0.2,1.4,1.3,2.5,2.8,2.7l17.4,2.1c0.2,0,0.3,0,0.5,0c2.6,1.5,4.3,2.5,4.9,2.8l1.1-1.7
		c-0.5-0.3-1.8-1.1-3.8-2.2C621.5,63.8,621.6,63.4,621.7,63.1z"/>
</g>
<g>
	<path class="st0" d="M566.5,149.6c5.8,0,10.4-4.7,10.4-10.4s-4.7-10.4-10.4-10.4s-10.4,4.7-10.4,10.4l0,0
		C556,145,560.7,149.6,566.5,149.6z"/>
	<path class="st0" d="M554.4,192l-36.2-21.8l22.6-12c0.7-0.4,1.2-0.8,1.7-1.4c1.6-1.9,1.8-4.6,0.5-6.7
		c-10.8-6.2-22.8-13.1-31.8-18.4c-0.6,0.5-1.2,1.2-1.6,1.9c-2.3,3.7-1.1,8.5,2.5,10.7l14.5,9L509,164.7l-27.2-16.4l-1.7,2.8
		l72.5,43.8c1.1,0.7,2.3,1,3.5,1c3.7,0,6.9-2.8,7-2.9l-2.2-2.5C561,190.4,557.2,193.7,554.4,192z M520.9,144.1L520.9,144.1
		L520.9,144.1L520.9,144.1L520.9,144.1z"/>
	<path class="st0" d="M570.9,158.9c0.3-1.5-0.6-2.9-2.1-3.3l0,0l0,0l-9.1-1.9l-5.3-3.1l-0.7-11.9c-0.1-2.3-2.6-6.6-2.6-6.6
		c-0.7-1.4-2.6-2.2-3.5-2.5l-0.7-0.2l0,0l-1-0.4l-1-0.3c-0.6-0.2-1.3-0.4-1.9-0.6c-1.3-0.4-2.6-0.7-4-1s-2.8-0.5-4.3-0.7
		c-0.7-0.1-1.5-0.1-2.3-0.1c-0.4,0-0.8,0-1.2,0H531h-0.1c0,0,0.1,0-0.1,0h-0.3H530h-0.6h-0.6c-0.4,0-0.7,0.1-1.1,0.1
		c-0.7,0.1-1.5,0.2-2.2,0.3c-1.4,0.2-2.9,0.5-4.2,0.9c-1.4,0.4-2.8,0.8-4.1,1.2l-0.4,0.1c-9-5.2-15.5-8.9-15.7-9l-1,1.8
		c0.4,0.2,24.9,14.3,45.4,26.2l2,8.1v0.2c0.2,1.4,1.3,2.5,2.8,2.7l17.4,2.1c0.2,0,0.3,0,0.5,0c2.6,1.5,4.3,2.5,4.9,2.8l1.1-1.7
		c-0.5-0.3-1.8-1.1-3.8-2.2C570.7,159.6,570.8,159.2,570.9,158.9z"/>
</g>
<g>
	<path class="st0" d="M373.5,149.6c5.8,0,10.4-4.7,10.4-10.4s-4.7-10.4-10.4-10.4s-10.4,4.7-10.4,10.4l0,0
		C363,145,367.7,149.6,373.5,149.6z"/>
	<path class="st0" d="M361.4,192l-36.2-21.8l22.6-12c0.7-0.4,1.2-0.8,1.7-1.4c1.6-1.9,1.8-4.6,0.5-6.7
		c-10.8-6.2-22.8-13.1-31.8-18.4c-0.6,0.5-1.2,1.2-1.6,1.9c-2.3,3.7-1.1,8.5,2.5,10.7l14.5,9L316,164.7l-27.2-16.4l-1.7,2.8
		l72.5,43.8c1.1,0.7,2.3,1,3.5,1c3.7,0,6.9-2.8,7-2.9l-2.2-2.5C368,190.4,364.2,193.7,361.4,192z M327.9,144.1L327.9,144.1
		L327.9,144.1L327.9,144.1L327.9,144.1z"/>
	<path class="st0" d="M377.9,158.9c0.3-1.5-0.6-2.9-2.1-3.3l0,0l0,0l-9.1-1.9l-5.3-3.1l-0.7-11.9c-0.1-2.3-2.6-6.6-2.6-6.6
		c-0.7-1.4-2.6-2.2-3.5-2.5l-0.7-0.2l0,0l-1-0.4l-1-0.3c-0.6-0.2-1.3-0.4-1.9-0.6c-1.3-0.4-2.6-0.7-4-1s-2.8-0.5-4.3-0.7
		c-0.7-0.1-1.5-0.1-2.3-0.1c-0.4,0-0.8,0-1.2,0H338h-0.1c0,0,0.1,0-0.1,0h-0.3H337h-0.6h-0.6c-0.4,0-0.7,0.1-1.1,0.1
		c-0.7,0.1-1.5,0.2-2.2,0.3c-1.4,0.2-2.9,0.5-4.2,0.9c-1.4,0.4-2.8,0.8-4.1,1.2l-0.4,0.1c-9-5.2-15.5-8.9-15.7-9l-1,1.8
		c0.4,0.2,24.9,14.3,45.4,26.2l2,8.1v0.2c0.2,1.4,1.3,2.5,2.8,2.7l17.4,2.1c0.2,0,0.3,0,0.5,0c2.6,1.5,4.3,2.5,4.9,2.8l1.1-1.7
		c-0.5-0.3-1.8-1.1-3.8-2.2C377.7,159.6,377.8,159.2,377.9,158.9z"/>
</g>
<g>
	<path class="st0" d="M180.5,149.6c5.8,0,10.4-4.7,10.4-10.4s-4.7-10.4-10.4-10.4s-10.4,4.7-10.4,10.4l0,0
		C170,145,174.7,149.6,180.5,149.6z"/>
	<path class="st0" d="M168.4,192l-36.2-21.8l22.6-12c0.7-0.4,1.2-0.8,1.7-1.4c1.6-1.9,1.8-4.6,0.5-6.7
		c-10.8-6.2-22.8-13.1-31.8-18.4c-0.6,0.5-1.2,1.2-1.6,1.9c-2.3,3.7-1.1,8.5,2.5,10.7l14.5,9L123,164.7l-27.2-16.4l-1.7,2.8
		l72.5,43.8c1.1,0.7,2.3,1,3.5,1c3.7,0,6.9-2.8,7-2.9l-2.2-2.5C175,190.4,171.2,193.7,168.4,192z M134.9,144.1L134.9,144.1
		L134.9,144.1L134.9,144.1L134.9,144.1z"/>
	<path class="st0" d="M184.9,158.9c0.3-1.5-0.6-2.9-2.1-3.3l0,0l0,0l-9.1-1.9l-5.3-3.1l-0.7-11.9c-0.1-2.3-2.6-6.6-2.6-6.6
		c-0.7-1.4-2.6-2.2-3.5-2.5l-0.7-0.2l0,0l-1-0.4l-1-0.3c-0.6-0.2-1.3-0.4-1.9-0.6c-1.3-0.4-2.6-0.7-4-1s-2.8-0.5-4.3-0.7
		c-0.7-0.1-1.5-0.1-2.3-0.1c-0.4,0-0.8,0-1.2,0H145h-0.1c0,0,0.1,0-0.1,0h-0.3H144h-0.6h-0.6c-0.4,0-0.7,0.1-1.1,0.1
		c-0.7,0.1-1.5,0.2-2.2,0.3c-1.4,0.2-2.9,0.5-4.2,0.9c-1.4,0.4-2.8,0.8-4.1,1.2l-0.4,0.1c-9-5.2-15.5-8.9-15.7-9l-1,1.8
		c0.4,0.2,24.9,14.3,45.4,26.2l2,8.1v0.2c0.2,1.4,1.3,2.5,2.8,2.7l17.4,2.1c0.2,0,0.3,0,0.5,0c2.6,1.5,4.3,2.5,4.9,2.8l1.1-1.7
		c-0.5-0.3-1.8-1.1-3.8-2.2C184.7,159.6,184.8,159.2,184.9,158.9z"/>
</g>
</svg>
