<svg id="Layer_1" data-name="Layer 1" xmlns="http://www.w3.org/2000/svg" viewBox="0 0 212.25 253.42"><defs><style>.cls-1{fill:#000007;}</style></defs><title>Snowboarder_icon</title><path class="cls-1" d="M303.4,94.79l-3.64-37.71a6.22,6.22,0,0,0-12.36-.15l0,.15-3.47,28.79-24.06,5.06-36.76,7.44-4.07.54-33,1.38L156,81.78a6.22,6.22,0,0,0-7.55,9.79l.1.1L177,118.77a6.74,6.74,0,0,0,3.63,1.78l2.44.37,35.79.76h.34c.28,0,.55,0,.83,0,.17.33.34.66.5,1a47.86,47.86,0,0,1,2.39,5.94,34.25,34.25,0,0,1,1.87,11.4v.49h0c0-.06,0-.18,0-.15v1.9l-24.42-11.4-1.35-.69a11.59,11.59,0,0,0-8.55-.82L131.1,146.49a10,10,0,0,0-4,2.28L101.53,107a11,11,0,0,1,3.63-15.07l-4.55-7.45a19.71,19.71,0,0,0-6.53,27.08L196.85,279.62A19.72,19.72,0,0,0,213.69,289a19.52,19.52,0,0,0,10.24-2.89l-4.55-7.45a11,11,0,0,1-15.08-3.63l-17.64-28.85a10,10,0,0,0,3.36-1.66l42.81-32.17a9.64,9.64,0,0,0,2.47-2.79l.86-1.49L252,182.32a16.3,16.3,0,0,0,3-4.17c.13-.15.25-.31.37-.46,1.12-1.41,2.18-2.83,3.2-4.28a92.54,92.54,0,0,0,5.65-9.11,76.62,76.62,0,0,0,4.53-10.11c.65-1.77,1.22-3.61,1.72-5.49a59.14,59.14,0,0,0,1.22-5.81l.11-.75.11-.87.2-1.73.14-2.6c0-1.61.05-3.23,0-4.84s-.06-3.23-.12-4.84-.16-3.22-.29-4.83-.27-3.22-.44-4.83-.39-3.21-.62-4.82c-.07-.42-.13-.84-.2-1.27l24.85-7.07,1.82-.53A8.66,8.66,0,0,0,303.4,94.79ZM176.8,229.12c-.12.12-.23.25-.35.38L137.59,166l52.8-9.17,28.23,19-6.23,18.79Z" transform="translate(-91.19 -35.61)"/><path class="cls-1" d="M236.49,88.88a26.64,26.64,0,1,0-26.64-26.64A26.63,26.63,0,0,0,236.49,88.88Z" transform="translate(-91.19 -35.61)"/></svg>