<svg id="Layer_1" data-name="Layer 1" xmlns="http://www.w3.org/2000/svg" viewBox="0 0 140.98 140.98"><defs><style>.cls-1{fill:#fff;}.cls-2{fill:#c0dc69;}.cls-3{fill:#cde387;}.cls-4{fill:#abd037;}.cls-5{fill:#f6faeb;}.cls-6{fill:#deecaf;}.cls-7{fill:#b8d755;}.cls-8{fill:#ecf0f2;}.cls-9{fill:#34454e;}</style></defs><title>Survey_icon_lightGrey</title><path class="cls-1" d="M309.57,392.6l54,45.28c-13.88,16.54-32.37,25.16-54,25.16Z" transform="translate(-239.04 -322.06)"/><path class="cls-2" d="M309.57,392.6l61,35.22a67.48,67.48,0,0,1-7,10.06Z" transform="translate(-239.04 -322.06)"/><path class="cls-3" d="M309.57,392.6l24.09-66.19a70.46,70.46,0,0,1,42.1,90.29,67.31,67.31,0,0,1-5.19,11.12Z" transform="translate(-239.04 -322.06)"/><path class="cls-4" d="M309.57,392.6l-61-35.21a69.88,69.88,0,0,1,85.09-31Z" transform="translate(-239.04 -322.06)"/><path class="cls-5" d="M309.57,392.6,240.2,380.37a67,67,0,0,1,8.37-23Z" transform="translate(-239.04 -322.06)"/><path class="cls-6" d="M309.57,392.6l-45.28,54c-19.85-16.65-28.59-40.67-24.09-66.19Z" transform="translate(-239.04 -322.06)"/><path class="cls-7" d="M309.57,392.6V463a67.69,67.69,0,0,1-45.28-16.48Z" transform="translate(-239.04 -322.06)"/><circle class="cls-8" cx="70.46" cy="70.44" r="45"/><path class="cls-9" d="M287.35,370.92a1,1,0,0,0-1,1v13.76a1,1,0,0,0,1,1H305a1,1,0,0,0,1-1V371.9a1,1,0,0,0-1-1Zm1,2H304v11.75h-15.7Zm24.53,4.9a1,1,0,1,0,0,1.95h23.52a1,1,0,0,0,0-1.95Zm-4,14.67a1,1,0,0,0-.7.45l-8.27,11.95-5.1-3.37a1,1,0,1,0-1.08,1.6l5.87,3.92a1,1,0,0,0,1.36-.24L309.72,394A1,1,0,0,0,308.82,392.47Zm-21.47,2a1,1,0,0,0-1,1V413.1a1,1,0,0,0,1,1H305a1,1,0,0,0,1-1v-2a1,1,0,0,0-1-1,1,1,0,0,0-1,1v1h-15.7v-15.7h10.8a1,1,0,0,0,1-1,1,1,0,0,0-1-1Zm25.5,8.83a1,1,0,0,0-1,1,1,1,0,0,0,1,1h23.52a1,1,0,0,0,1-1,1,1,0,0,0-1-1Z" transform="translate(-239.04 -322.06)"/></svg>