<svg id="Layer_1" data-name="Layer 1" xmlns="http://www.w3.org/2000/svg" viewBox="0 0 140.98 140.98"><defs><style>.cls-1{fill:#fff;}.cls-2{fill:#c0dc69;}.cls-3{fill:#cde387;}.cls-4{fill:#abd037;}.cls-5{fill:#f6faeb;}.cls-6{fill:#deecaf;}.cls-7{fill:#b8d755;}.cls-8{fill:#ecf0f2;}.cls-9{fill:#34454e;}</style></defs><title>SurveyResults_icon</title><path class="cls-1" d="M309.48,392.59l-45.27,54c-16.54-13.87-25.17-32.36-25.17-54Z" transform="translate(-239.04 -322.06)"/><path class="cls-2" d="M309.48,392.59l-35.22,61a66.22,66.22,0,0,1-10.05-7Z" transform="translate(-239.04 -322.06)"/><path class="cls-3" d="M309.48,392.59l66.19,24.09a70.44,70.44,0,0,1-90.28,42.1,67,67,0,0,1-11.13-5.19Z" transform="translate(-239.04 -322.06)"/><path class="cls-4" d="M309.48,392.59l35.22-61a69.86,69.86,0,0,1,31,85.09Z" transform="translate(-239.04 -322.06)"/><path class="cls-5" d="M309.48,392.59l12.23-69.37a67,67,0,0,1,23,8.37Z" transform="translate(-239.04 -322.06)"/><path class="cls-6" d="M309.48,392.59l-54-45.28c16.66-19.85,40.68-28.59,66.19-24.09Z" transform="translate(-239.04 -322.06)"/><path class="cls-7" d="M309.48,392.59H239a67.72,67.72,0,0,1,16.48-45.28Z" transform="translate(-239.04 -322.06)"/><circle class="cls-8" cx="70.46" cy="70.44" r="45"/><path class="cls-9" d="M334.4,414.23H288.46V368.29a1.41,1.41,0,0,0-2.81,0v47.35a1.41,1.41,0,0,0,1.4,1.41H334.4a1.41,1.41,0,1,0,0-2.82Z" transform="translate(-239.04 -322.06)"/><path class="cls-9" d="M303.54,388.13a.57.57,0,0,0-.53.61v20.94a.58.58,0,0,0,.53.62h5.61a.58.58,0,0,0,.53-.62V388.74a.58.58,0,0,0-.53-.61Z" transform="translate(-239.04 -322.06)"/><path class="cls-9" d="M314.11,393.2a.57.57,0,0,0-.52.61v15.87a.58.58,0,0,0,.52.62h5.61a.58.58,0,0,0,.53-.62V393.81a.58.58,0,0,0-.53-.61Z" transform="translate(-239.04 -322.06)"/><path class="cls-9" d="M293,397.2a.57.57,0,0,0-.53.61v11.87a.58.58,0,0,0,.53.62h5.61a.58.58,0,0,0,.52-.62V397.81a.57.57,0,0,0-.52-.61Z" transform="translate(-239.04 -322.06)"/><path class="cls-9" d="M324.69,378.82a.58.58,0,0,0-.53.62v30.24a.58.58,0,0,0,.53.62h5.61a.58.58,0,0,0,.52-.62V379.44a.58.58,0,0,0-.52-.62Z" transform="translate(-239.04 -322.06)"/><path class="cls-9" d="M296.83,384.16l-4,7.31a1.37,1.37,0,0,0,.54,1.86,1.33,1.33,0,0,0,.66.17,1.38,1.38,0,0,0,1.21-.71l4-7.32a8,8,0,0,1,2.36-2.75,2.1,2.1,0,0,0,.43,0,2.51,2.51,0,0,0,1.84-.8,2.69,2.69,0,0,1,1.78.76,4.47,4.47,0,0,0,4.3,1.19c2.25-.6,4.13-2.9,5.17-6.31l1.32-4.31a12.11,12.11,0,0,1,1.37-3.14,2.5,2.5,0,0,0,.91.18,2.61,2.61,0,0,0,.48,0l4.65,4.22a1.38,1.38,0,0,0,1.83.65,1.37,1.37,0,0,0,.65-1.83l-4.88-4.69c-.08-.16-.16-.29-.24-.43a2.58,2.58,0,0,0,0-.4,2.53,2.53,0,0,0-5.05,0,12.63,12.63,0,0,0-2.38,4.71l-1.32,4.32c-.88,2.88-2.26,4.19-3.26,4.46a1.75,1.75,0,0,1-1.72-.55,5.53,5.53,0,0,0-3.16-1.46,2.53,2.53,0,0,0-4.86,1,2.78,2.78,0,0,0,.07.57A11,11,0,0,0,296.83,384.16Z" transform="translate(-239.04 -322.06)"/></svg>