<svg id="Layer_1" data-name="Layer 1" xmlns="http://www.w3.org/2000/svg" viewBox="0 0 311 208.14"><defs><style>.cls-1{fill:#000007;}</style></defs><title>Terrain_icon</title><path class="cls-1" d="M211.57,162.17a18.73,18.73,0,0,0-2.23-10.58,20.19,20.19,0,0,0-7.48-7.34,32.68,32.68,0,0,0-4.94-2.31c-.69-.25-1.4-.47-2.09-.72-3-1.1-6.64-2.89-7-6.42a11.23,11.23,0,0,1,.9-5.08,27.14,27.14,0,0,1,2.47-4.83,58,58,0,0,1,6.81-8.65,123.55,123.55,0,0,1,17-14.81,191,191,0,0,1,18.51-12,205.37,205.37,0,0,1,18.59-9.46c2.9-1.29,5.84-2.52,8.8-3.66,1.24-.48,2.49-1,3.74-1.41a5,5,0,0,0,1.53-.68,2.51,2.51,0,0,0,.93-1.68,2.53,2.53,0,0,0-2.27-2.74,4.26,4.26,0,0,0-1.62.29l-2.05.63c-2.9.89-5.76,1.86-8.62,2.89q-8,2.9-15.7,6.43a212.67,212.67,0,0,0-19.08,9.9,166.66,166.66,0,0,0-18.59,12.54,86.62,86.62,0,0,0-15.73,15.35c-4.16,5.45-7.7,12.2-6.8,19.23a17,17,0,0,0,4.61,9.51,26.86,26.86,0,0,0,9,6c2.13.92,4.31,1.69,6.06,3.27a5.91,5.91,0,0,1,1.52,2,5.26,5.26,0,0,1,.38,2.39,13.67,13.67,0,0,1-1.42,5,41.88,41.88,0,0,1-6.21,9.14,94.92,94.92,0,0,1-7.74,7.93A172.86,172.86,0,0,1,165,196.37c-6.12,4.33-12.43,8.36-18.88,12.18q-9.42,5.56-19.17,10.54-7.92,4-16,7.73c-2.74,1.24-5.5,2.46-8.26,3.64l-3.46,1.46a12,12,0,0,0-2.69,1.5,10.23,10.23,0,0,0-2.1,14.09,10.53,10.53,0,0,0,6.44,4.15,10.8,10.8,0,0,0,6.89-1c4.94-2.4,9.86-4.86,14.71-7.44q8.29-4.41,16.36-9.2,9.43-5.59,18.52-11.73c6.15-4.16,12.16-8.52,18-13.14a195.81,195.81,0,0,0,17-15,93.27,93.27,0,0,0,13.85-17.06c2.75-4.55,5-9.59,5.39-14.92C211.68,160.64,211.33,165.23,211.57,162.17Z" transform="translate(-34.62 -58.61)"/><path class="cls-1" d="M284.29,188.85a54,54,0,0,0-2.52-22.06,43.9,43.9,0,0,0-11.07-17.52,41.88,41.88,0,0,0-15-9.18c-1.23-.43-2.48-.81-3.68-1.31a26.36,26.36,0,0,1-4.6-2.38,16.51,16.51,0,0,1-6.22-7c-2.92-6.59-.48-14.21,2.88-20.15a61.57,61.57,0,0,1,14.21-16.49A96.57,96.57,0,0,1,276.1,81c2.9-1.51,5.87-2.9,8.89-4.14,1.26-.54,2.52-1,3.79-1.53l1.86-.68a2.61,2.61,0,0,0,1.34-1,2.51,2.51,0,0,0-.81-3.49c-1.13-.67-2.33-.16-3.48.18-2.88.87-5.73,1.83-8.55,2.9A113.31,113.31,0,0,0,261,82a87.16,87.16,0,0,0-17.32,13.49,53.2,53.2,0,0,0-11.72,17.41c-2.6,6.65-3.26,14.1-.67,20.85s8,11.78,14.24,15.16a47.59,47.59,0,0,0,4.76,2.2c.74.3,1.48.61,2.21,1a28.68,28.68,0,0,1,8.16,5.74,31.43,31.43,0,0,1,8.57,18.89A46.79,46.79,0,0,1,266,198.12a69.06,69.06,0,0,1-10.53,18.16,96.31,96.31,0,0,1-15.3,15.24A128.35,128.35,0,0,1,223.15,243c-2.53,1.43-5.1,2.78-7.69,4.08a10.68,10.68,0,0,0-5.21,5.39,10.21,10.21,0,0,0-.12,7.59,10.41,10.41,0,0,0,5.35,5.7,10.59,10.59,0,0,0,7.65.46,17.61,17.61,0,0,0,3.23-1.59c1.17-.67,2.33-1.37,3.49-2.07A156.38,156.38,0,0,0,246.39,251a126.74,126.74,0,0,0,15.29-14.37,102.4,102.4,0,0,0,12.44-17,80.28,80.28,0,0,0,8.09-19.18,66.57,66.57,0,0,0,2.08-11.63C284.65,184.51,283.92,193.2,284.29,188.85Z" transform="translate(-34.62 -58.61)"/><polygon class="cls-1" points="33.27 163.58 33.27 193.28 40.18 193.28 40.18 131.13 0 163.58 33.27 163.58"/><polygon class="cls-1" points="276.53 163.58 276.53 193.28 283.44 193.28 283.44 131.13 243.25 163.58 276.53 163.58"/><polygon class="cls-1" points="132.43 94.2 136.15 94.2 136.15 60.78 114.54 78.23 132.43 78.23 132.43 94.2"/><polygon class="cls-1" points="249.51 94.2 249.51 60.78 227.9 78.23 245.79 78.23 245.79 94.2 249.51 94.2"/><polygon class="cls-1" points="210.9 15.31 212.6 15.31 212.6 0 202.7 7.99 210.9 7.99 210.9 15.31"/><polygon class="cls-1" points="262.83 15.31 264.54 15.31 264.54 0 254.63 7.99 262.83 7.99 262.83 15.31"/><path class="cls-1" d="M66.64,176.91c6.23,4.47,24.11,6.69,38.92,7.31v11.72h16.91V184.22c14.81-.62,32.7-2.84,38.93-7.31-9.21-4.81-17.89-15.44-25.31-26.31,6.48-.94,12.12-2.35,14.86-4.32-8.33-4.35-16.1-14.8-22.43-24.57,5.81-.7,11.09-1.85,13.47-3.56-13.25-6.93-24.66-34.31-28-34.31s-14.73,27.38-28,34.31c2.38,1.71,7.67,2.86,13.47,3.56-6.33,9.77-14.1,20.22-22.42,24.57,2.74,2,8.38,3.38,14.85,4.32C84.52,161.47,75.84,172.1,66.64,176.91Z" transform="translate(-34.62 -58.61)"/><path class="cls-1" d="M345.62,128.12c-4.78-2.5-9.29-8-13.14-13.67,3.36-.49,6.29-1.22,7.71-2.25-4.32-2.25-8.36-7.68-11.65-12.77,3-.36,5.76-1,7-1.85C328.66,94,322.73,79.75,321,79.75S313.35,94,306.47,97.58c1.23.9,4,1.49,7,1.85-3.3,5.09-7.34,10.52-11.66,12.77,1.43,1,4.36,1.76,7.72,2.25-3.86,5.65-8.36,11.17-13.15,13.67,3.24,2.33,12.54,3.48,20.23,3.8V138h8.79v-6.09C333.09,131.6,342.39,130.45,345.62,128.12Z" transform="translate(-34.62 -58.61)"/><path class="cls-1" d="M287.91,105.84c4.78-.15,10.56-.72,12.56-1.86-3-1.23-5.77-3.94-8.16-6.72a15.06,15.06,0,0,0,4.79-1.09c-2.68-1.11-5.19-3.78-7.24-6.27a13.41,13.41,0,0,0,4.35-.91c-4.28-1.77-8-8.75-9-8.75s-4.75,7-9,8.75a13.41,13.41,0,0,0,4.35.91c-2,2.49-4.55,5.16-7.24,6.27a15.07,15.07,0,0,0,4.8,1.09c-2.4,2.78-5.2,5.49-8.18,6.72,2,1.14,7.79,1.71,12.57,1.86v3h5.47Z" transform="translate(-34.62 -58.61)"/></svg>